<?xml version="1.0" encoding="UTF-8" standalone="no"?><svg xmlns="http://www.w3.org/2000/svg" xmlns:xlink="http://www.w3.org/1999/xlink" contentScriptType="application/ecmascript" contentStyleType="text/css" height="1457px" preserveAspectRatio="none" style="width:1616px;height:1457px;" version="1.1" viewBox="0 0 1616 1457" width="1616px" zoomAndPan="magnify"><defs><filter height="300%" id="f1g0xtmsu4m1l" width="300%" x="-1" y="-1"><feGaussianBlur result="blurOut" stdDeviation="2.0"/><feColorMatrix in="blurOut" result="blurOut2" type="matrix" values="0 0 0 0 0 0 0 0 0 0 0 0 0 0 0 0 0 0 .4 0"/><feOffset dx="4.0" dy="4.0" in="blurOut2" result="blurOut3"/><feBlend in="SourceGraphic" in2="blurOut3" mode="normal"/></filter></defs><g><ellipse cx="168.5" cy="64.6953" fill="#000000" filter="url(#f1g0xtmsu4m1l)" rx="10" ry="10" style="stroke: none; stroke-width: 1.0;"/><rect fill="#FEFECE" filter="url(#f1g0xtmsu4m1l)" height="34.1328" rx="12.5" ry="12.5" style="stroke: #A80036; stroke-width: 1.5;" width="140" x="98.5" y="94.6953"/><text fill="#000000" font-family="sans-serif" font-size="12" lengthAdjust="spacingAndGlyphs" textLength="120" x="108.5" y="116.2969">特許権者リストを入力</text><rect fill="#FEFECE" filter="url(#f1g0xtmsu4m1l)" height="34.1328" rx="12.5" ry="12.5" style="stroke: #A80036; stroke-width: 1.5;" width="80" x="219.5" y="641.2871"/><text fill="#000000" font-family="sans-serif" font-size="12" lengthAdjust="spacingAndGlyphs" textLength="60" x="229.5" y="662.8887">結果を確認</text><ellipse cx="259.5" cy="706.4199" fill="#FFFFFF" filter="url(#f1g0xtmsu4m1l)" rx="11" ry="11" style="stroke: #000000; stroke-width: 1.0;"/><ellipse cx="259.5" cy="706.4199" fill="#000000" rx="6" ry="6" style="stroke: #7F7F7F; stroke-width: 1.0;"/><path d="M258.5,1040.5039 L258.5,1079.7803 L238.5,1083.7803 L258.5,1087.7803 L258.5,1127.0566 A0,0 0 0 0 258.5,1127.0566 L422.5,1127.0566 A0,0 0 0 0 422.5,1127.0566 L422.5,1050.5039 L412.5,1040.5039 L258.5,1040.5039 A0,0 0 0 0 258.5,1040.5039 " fill="#FBFB77" filter="url(#f1g0xtmsu4m1l)" style="stroke: #A80036; stroke-width: 1.0;"/><path d="M412.5,1040.5039 L412.5,1050.5039 L422.5,1050.5039 L412.5,1040.5039 " fill="#FBFB77" style="stroke: #A80036; stroke-width: 1.0;"/><text fill="#000000" font-family="sans-serif" font-size="13" font-weight="bold" lengthAdjust="spacingAndGlyphs" textLength="52" x="264.5" y="1058.0723">確認内容</text><text fill="#000000" font-family="sans-serif" font-size="13" lengthAdjust="spacingAndGlyphs" textLength="143" x="264.5" y="1073.3828">・優先度ランク順の表示</text><text fill="#000000" font-family="sans-serif" font-size="13" lengthAdjust="spacingAndGlyphs" textLength="117" x="264.5" y="1088.6934">・侵害可能性の詳細</text><text fill="#000000" font-family="sans-serif" font-size="13" lengthAdjust="spacingAndGlyphs" textLength="130" x="264.5" y="1104.0039">・収益見込みの可視化</text><text fill="#000000" font-family="sans-serif" font-size="13" lengthAdjust="spacingAndGlyphs" textLength="130" x="264.5" y="1119.3145">・分析根拠へのリンク</text><rect fill="#FEFECE" filter="url(#f1g0xtmsu4m1l)" height="34.1328" rx="12.5" ry="12.5" style="stroke: #A80036; stroke-width: 1.5;" width="140" x="98.5" y="1066.7139"/><text fill="#000000" font-family="sans-serif" font-size="12" lengthAdjust="spacingAndGlyphs" textLength="120" x="108.5" y="1088.3154">ダッシュボードで確認</text><rect fill="#FEFECE" filter="url(#f1g0xtmsu4m1l)" height="34.1328" rx="12.5" ry="12.5" style="stroke: #A80036; stroke-width: 1.5;" width="92" x="122.5" y="1147.0566"/><text fill="#000000" font-family="sans-serif" font-size="12" lengthAdjust="spacingAndGlyphs" textLength="72" x="132.5" y="1168.6582">総合的に判断</text><polygon fill="#FEFECE" filter="url(#f1g0xtmsu4m1l)" points="133,1201.1895,204,1201.1895,216,1213.1895,204,1225.1895,133,1225.1895,121,1213.1895,133,1201.1895" style="stroke: #A80036; stroke-width: 1.5;"/><text fill="#000000" font-family="sans-serif" font-size="11" lengthAdjust="spacingAndGlyphs" textLength="71" x="133" y="1217.3467">訴訟すべきか?</text><text fill="#000000" font-family="sans-serif" font-size="11" lengthAdjust="spacingAndGlyphs" textLength="19" x="102" y="1210.8691">Yes</text><text fill="#000000" font-family="sans-serif" font-size="11" lengthAdjust="spacingAndGlyphs" textLength="15" x="216" y="1210.8691">No</text><rect fill="#FEFECE" filter="url(#f1g0xtmsu4m1l)" height="34.1328" rx="12.5" ry="12.5" style="stroke: #A80036; stroke-width: 1.5;" width="92" x="20" y="1245.1895"/><text fill="#000000" font-family="sans-serif" font-size="12" lengthAdjust="spacingAndGlyphs" textLength="72" x="30" y="1266.791">訴訟準備開始</text><path d="M713,138.8281 L713,170.4492 L693,174.4492 L713,178.4492 L713,210.0703 A0,0 0 0 0 713,210.0703 L864,210.0703 A0,0 0 0 0 864,210.0703 L864,148.8281 L854,138.8281 L713,138.8281 A0,0 0 0 0 713,138.8281 " fill="#FBFB77" filter="url(#f1g0xtmsu4m1l)" style="stroke: #A80036; stroke-width: 1.0;"/><path d="M854,138.8281 L854,148.8281 L864,148.8281 L854,138.8281 " fill="#FBFB77" style="stroke: #A80036; stroke-width: 1.0;"/><text fill="#000000" font-family="sans-serif" font-size="13" font-weight="bold" lengthAdjust="spacingAndGlyphs" textLength="78" x="719" y="156.3965">データソース</text><text fill="#000000" font-family="sans-serif" font-size="13" lengthAdjust="spacingAndGlyphs" textLength="91" x="719" y="171.707">・J-PlatPat API</text><text fill="#000000" font-family="sans-serif" font-size="13" lengthAdjust="spacingAndGlyphs" textLength="130" x="719" y="187.0176">・特許庁データベース</text><text fill="#000000" font-family="sans-serif" font-size="13" lengthAdjust="spacingAndGlyphs" textLength="65" x="719" y="202.3281">・特許公報</text><rect fill="#FEFECE" filter="url(#f1g0xtmsu4m1l)" height="34.1328" rx="12.5" ry="12.5" style="stroke: #A80036; stroke-width: 1.5;" width="128" x="565" y="157.3828"/><text fill="#000000" font-family="sans-serif" font-size="12" lengthAdjust="spacingAndGlyphs" textLength="108" x="575" y="178.9844">特許情報を自動取得</text><rect fill="#FEFECE" filter="url(#f1g0xtmsu4m1l)" height="34.1328" rx="12.5" ry="12.5" style="stroke: #A80036; stroke-width: 1.5;" width="164" x="547" y="230.0703"/><text fill="#000000" font-family="sans-serif" font-size="12" lengthAdjust="spacingAndGlyphs" textLength="144" x="557" y="251.6719">請求項を自動抽出・構造化</text><rect fill="#FEFECE" filter="url(#f1g0xtmsu4m1l)" height="34.1328" rx="12.5" ry="12.5" style="stroke: #A80036; stroke-width: 1.5;" width="176" x="541" y="284.2031"/><text fill="#000000" font-family="sans-serif" font-size="12" lengthAdjust="spacingAndGlyphs" textLength="156" x="551" y="305.8047">侵害調査エージェントを起動</text><polygon fill="#FEFECE" filter="url(#f1g0xtmsu4m1l)" points="588,543.1543,670,543.1543,682,555.1543,670,567.1543,588,567.1543,576,555.1543,588,543.1543" style="stroke: #A80036; stroke-width: 1.5;"/><text fill="#000000" font-family="sans-serif" font-size="11" lengthAdjust="spacingAndGlyphs" textLength="82" x="588" y="559.3115">侵害可能性あり?</text><text fill="#000000" font-family="sans-serif" font-size="11" lengthAdjust="spacingAndGlyphs" textLength="6" x="570" y="552.834">○</text><text fill="#000000" font-family="sans-serif" font-size="11" lengthAdjust="spacingAndGlyphs" textLength="9" x="682" y="552.834">×</text><rect fill="#FEFECE" filter="url(#f1g0xtmsu4m1l)" height="34.1328" rx="12.5" ry="12.5" style="stroke: #A80036; stroke-width: 1.5;" width="176" x="450" y="587.1543"/><text fill="#000000" font-family="sans-serif" font-size="12" lengthAdjust="spacingAndGlyphs" textLength="156" x="460" y="608.7559">売上推定エージェントを起動</text><rect fill="#FEFECE" filter="url(#f1g0xtmsu4m1l)" height="34.1328" rx="12.5" ry="12.5" style="stroke: #A80036; stroke-width: 1.5;" width="148" x="646" y="587.1543"/><text fill="#000000" font-family="sans-serif" font-size="12" lengthAdjust="spacingAndGlyphs" textLength="128" x="656" y="608.7559">結果をSupabaseに保存</text><rect fill="#FEFECE" filter="url(#f1g0xtmsu4m1l)" height="34.1328" rx="12.5" ry="12.5" style="stroke: #A80036; stroke-width: 1.5;" width="158" x="550" y="942.2383"/><text fill="#000000" font-family="sans-serif" font-size="12" lengthAdjust="spacingAndGlyphs" textLength="138" x="560" y="963.8398">DD管理シートを自動更新</text><rect fill="#FEFECE" filter="url(#f1g0xtmsu4m1l)" height="34.1328" rx="12.5" ry="12.5" style="stroke: #A80036; stroke-width: 1.5;" width="80" x="589" y="996.3711"/><text fill="#000000" font-family="sans-serif" font-size="12" lengthAdjust="spacingAndGlyphs" textLength="60" x="599" y="1017.9727">通知を送信</text><rect fill="#FEFECE" filter="url(#f1g0xtmsu4m1l)" height="34.1328" rx="12.5" ry="12.5" style="stroke: #A80036; stroke-width: 1.5;" width="188" x="432.5" y="1299.3223"/><text fill="#000000" font-family="sans-serif" font-size="12" lengthAdjust="spacingAndGlyphs" textLength="168" x="442.5" y="1320.9238">ステータス更新（訴訟準備中）</text><rect fill="#FEFECE" filter="url(#f1g0xtmsu4m1l)" height="34.1328" rx="12.5" ry="12.5" style="stroke: #A80036; stroke-width: 1.5;" width="148" x="452.5" y="1353.4551"/><text fill="#000000" font-family="sans-serif" font-size="12" lengthAdjust="spacingAndGlyphs" textLength="128" x="462.5" y="1375.0566">履歴をSupabaseに記録</text><ellipse cx="526.5" cy="1418.5879" fill="#FFFFFF" filter="url(#f1g0xtmsu4m1l)" rx="11" ry="11" style="stroke: #000000; stroke-width: 1.0;"/><ellipse cx="526.5" cy="1418.5879" fill="#000000" rx="6" ry="6" style="stroke: #7F7F7F; stroke-width: 1.0;"/><rect fill="#FEFECE" filter="url(#f1g0xtmsu4m1l)" height="34.1328" rx="12.5" ry="12.5" style="stroke: #A80036; stroke-width: 1.5;" width="44" x="709.5" y="1245.1895"/><text fill="#000000" font-family="sans-serif" font-size="12" lengthAdjust="spacingAndGlyphs" textLength="24" x="719.5" y="1266.791">終了</text><rect fill="#FEFECE" filter="url(#f1g0xtmsu4m1l)" height="34.1328" rx="12.5" ry="12.5" style="stroke: #A80036; stroke-width: 1.5;" width="182" x="640.5" y="1299.3223"/><text fill="#000000" font-family="sans-serif" font-size="12" lengthAdjust="spacingAndGlyphs" textLength="162" x="650.5" y="1320.9238">ステータス更新（却下/保留）</text><rect fill="#FEFECE" filter="url(#f1g0xtmsu4m1l)" height="34.1328" rx="12.5" ry="12.5" style="stroke: #A80036; stroke-width: 1.5;" width="148" x="657.5" y="1353.4551"/><text fill="#000000" font-family="sans-serif" font-size="12" lengthAdjust="spacingAndGlyphs" textLength="128" x="667.5" y="1375.0566">履歴をSupabaseに記録</text><ellipse cx="731.5" cy="1418.5879" fill="#FFFFFF" filter="url(#f1g0xtmsu4m1l)" rx="11" ry="11" style="stroke: #000000; stroke-width: 1.0;"/><ellipse cx="731.5" cy="1418.5879" fill="#000000" rx="6" ry="6" style="stroke: #7F7F7F; stroke-width: 1.0;"/><rect fill="#FEFECE" filter="url(#f1g0xtmsu4m1l)" height="34.1328" rx="12.5" ry="12.5" style="stroke: #A80036; stroke-width: 1.5;" width="153" x="874" y="338.3359"/><text fill="#000000" font-family="sans-serif" font-size="12" lengthAdjust="spacingAndGlyphs" textLength="133" x="884" y="359.9375">Web検索による製品調査</text><rect fill="#FEFECE" filter="url(#f1g0xtmsu4m1l)" height="34.1328" rx="12.5" ry="12.5" style="stroke: #A80036; stroke-width: 1.5;" width="152" x="874.5" y="392.4688"/><text fill="#000000" font-family="sans-serif" font-size="12" lengthAdjust="spacingAndGlyphs" textLength="132" x="884.5" y="414.0703">構成要件マッチング分析</text><path d="M1046.5,436.6016 L1046.5,475.8779 L1026.5,479.8779 L1046.5,483.8779 L1046.5,523.1543 A0,0 0 0 0 1046.5,523.1543 L1236.5,523.1543 A0,0 0 0 0 1236.5,523.1543 L1236.5,446.6016 L1226.5,436.6016 L1046.5,436.6016 A0,0 0 0 0 1046.5,436.6016 " fill="#FBFB77" filter="url(#f1g0xtmsu4m1l)" style="stroke: #A80036; stroke-width: 1.0;"/><path d="M1226.5,436.6016 L1226.5,446.6016 L1236.5,446.6016 L1226.5,436.6016 " fill="#FBFB77" style="stroke: #A80036; stroke-width: 1.0;"/><text fill="#000000" font-family="sans-serif" font-size="13" font-weight="bold" lengthAdjust="spacingAndGlyphs" textLength="78" x="1052.5" y="454.1699">自動実行内容</text><text fill="#000000" font-family="sans-serif" font-size="13" lengthAdjust="spacingAndGlyphs" textLength="130" x="1052.5" y="469.4805">・製品仕様の自動収集</text><text fill="#000000" font-family="sans-serif" font-size="13" lengthAdjust="spacingAndGlyphs" textLength="169" x="1052.5" y="484.791">・構成要件の自動マッピング</text><text fill="#000000" font-family="sans-serif" font-size="13" lengthAdjust="spacingAndGlyphs" textLength="117" x="1052.5" y="500.1016">・充足性の自動判定</text><text fill="#000000" font-family="sans-serif" font-size="13" lengthAdjust="spacingAndGlyphs" textLength="128" x="1052.5" y="515.4121">・根拠URLの自動記録</text><rect fill="#FEFECE" filter="url(#f1g0xtmsu4m1l)" height="34.1328" rx="12.5" ry="12.5" style="stroke: #A80036; stroke-width: 1.5;" width="152" x="874.5" y="462.8115"/><text fill="#000000" font-family="sans-serif" font-size="12" lengthAdjust="spacingAndGlyphs" textLength="132" x="884.5" y="484.4131">充足性判断レポート生成</text><rect fill="#FEFECE" filter="url(#f1g0xtmsu4m1l)" height="34.1328" rx="12.5" ry="12.5" style="stroke: #A80036; stroke-width: 1.5;" width="140" x="1258.5" y="737.4199"/><text fill="#000000" font-family="sans-serif" font-size="12" lengthAdjust="spacingAndGlyphs" textLength="120" x="1268.5" y="759.0215">企業・製品情報を収集</text><rect fill="#FEFECE" filter="url(#f1g0xtmsu4m1l)" height="34.1328" rx="12.5" ry="12.5" style="stroke: #A80036; stroke-width: 1.5;" width="140" x="1258.5" y="791.5527"/><text fill="#000000" font-family="sans-serif" font-size="12" lengthAdjust="spacingAndGlyphs" textLength="120" x="1268.5" y="813.1543">市場規模・シェア分析</text><path d="M1430.5,835.6855 L1430.5,874.9619 L1410.5,878.9619 L1430.5,882.9619 L1430.5,922.2383 A0,0 0 0 0 1430.5,922.2383 L1594.5,922.2383 A0,0 0 0 0 1594.5,922.2383 L1594.5,845.6855 L1584.5,835.6855 L1430.5,835.6855 A0,0 0 0 0 1430.5,835.6855 " fill="#FBFB77" filter="url(#f1g0xtmsu4m1l)" style="stroke: #A80036; stroke-width: 1.0;"/><path d="M1584.5,835.6855 L1584.5,845.6855 L1594.5,845.6855 L1584.5,835.6855 " fill="#FBFB77" style="stroke: #A80036; stroke-width: 1.0;"/><text fill="#000000" font-family="sans-serif" font-size="13" font-weight="bold" lengthAdjust="spacingAndGlyphs" textLength="78" x="1436.5" y="853.2539">自動実行内容</text><text fill="#000000" font-family="sans-serif" font-size="13" lengthAdjust="spacingAndGlyphs" textLength="130" x="1436.5" y="868.5645">・企業財務情報の収集</text><text fill="#000000" font-family="sans-serif" font-size="13" lengthAdjust="spacingAndGlyphs" textLength="104" x="1436.5" y="883.875">・製品売上の推定</text><text fill="#000000" font-family="sans-serif" font-size="13" lengthAdjust="spacingAndGlyphs" textLength="117" x="1436.5" y="899.1855">・市場シェアの分析</text><text fill="#000000" font-family="sans-serif" font-size="13" lengthAdjust="spacingAndGlyphs" textLength="143" x="1436.5" y="914.4961">・収益ランクの自動判定</text><rect fill="#FEFECE" filter="url(#f1g0xtmsu4m1l)" height="34.1328" rx="12.5" ry="12.5" style="stroke: #A80036; stroke-width: 1.5;" width="164" x="1246.5" y="861.8955"/><text fill="#000000" font-family="sans-serif" font-size="12" lengthAdjust="spacingAndGlyphs" textLength="144" x="1256.5" y="883.4971">売上・収益性レポート生成</text><line style="stroke: #A80036; stroke-width: 1.5;" x1="168.5" x2="168.5" y1="74.6953" y2="94.6953"/><polygon fill="#A80036" points="164.5,84.6953,168.5,94.6953,172.5,84.6953,168.5,88.6953" style="stroke: #A80036; stroke-width: 1.0;"/><line style="stroke: #A80036; stroke-width: 1.5;" x1="259.5" x2="259.5" y1="675.4199" y2="695.4199"/><polygon fill="#A80036" points="255.5,685.4199,259.5,695.4199,263.5,685.4199,259.5,689.4199" style="stroke: #A80036; stroke-width: 1.0;"/><line style="stroke: #A80036; stroke-width: 1.5;" x1="168.5" x2="168.5" y1="1100.8467" y2="1147.0566"/><polygon fill="#A80036" points="164.5,1137.0566,168.5,1147.0566,172.5,1137.0566,168.5,1141.0566" style="stroke: #A80036; stroke-width: 1.0;"/><line style="stroke: #A80036; stroke-width: 1.5;" x1="121" x2="66" y1="1213.1895" y2="1213.1895"/><line style="stroke: #A80036; stroke-width: 1.5;" x1="66" x2="66" y1="1213.1895" y2="1245.1895"/><polygon fill="#A80036" points="62,1235.1895,66,1245.1895,70,1235.1895,66,1239.1895" style="stroke: #A80036; stroke-width: 1.0;"/><line style="stroke: #A80036; stroke-width: 1.5;" x1="168.5" x2="168.5" y1="1181.1895" y2="1201.1895"/><polygon fill="#A80036" points="164.5,1191.1895,168.5,1201.1895,172.5,1191.1895,168.5,1195.1895" style="stroke: #A80036; stroke-width: 1.0;"/><line style="stroke: #A80036; stroke-width: 1.5;" x1="629" x2="629" y1="191.5156" y2="230.0703"/><polygon fill="#A80036" points="625,220.0703,629,230.0703,633,220.0703,629,224.0703" style="stroke: #A80036; stroke-width: 1.0;"/><line style="stroke: #A80036; stroke-width: 1.5;" x1="629" x2="629" y1="264.2031" y2="284.2031"/><polygon fill="#A80036" points="625,274.2031,629,284.2031,633,274.2031,629,278.2031" style="stroke: #A80036; stroke-width: 1.0;"/><line style="stroke: #A80036; stroke-width: 1.5;" x1="576" x2="538" y1="555.1543" y2="555.1543"/><line style="stroke: #A80036; stroke-width: 1.5;" x1="538" x2="538" y1="555.1543" y2="587.1543"/><polygon fill="#A80036" points="534,577.1543,538,587.1543,542,577.1543,538,581.1543" style="stroke: #A80036; stroke-width: 1.0;"/><line style="stroke: #A80036; stroke-width: 1.5;" x1="682" x2="720" y1="555.1543" y2="555.1543"/><line style="stroke: #A80036; stroke-width: 1.5;" x1="720" x2="720" y1="555.1543" y2="587.1543"/><polygon fill="#A80036" points="716,577.1543,720,587.1543,724,577.1543,720,581.1543" style="stroke: #A80036; stroke-width: 1.0;"/><line style="stroke: #A80036; stroke-width: 1.5;" x1="538" x2="538" y1="621.2871" y2="722.4199"/><line style="stroke: #A80036; stroke-width: 1.5;" x1="538" x2="1328.5" y1="722.4199" y2="722.4199"/><line style="stroke: #A80036; stroke-width: 1.5;" x1="1328.5" x2="1328.5" y1="722.4199" y2="737.4199"/><polygon fill="#A80036" points="1324.5,727.4199,1328.5,737.4199,1332.5,727.4199,1328.5,731.4199" style="stroke: #A80036; stroke-width: 1.0;"/><line style="stroke: #A80036; stroke-width: 1.5;" x1="629" x2="629" y1="976.3711" y2="996.3711"/><polygon fill="#A80036" points="625,986.3711,629,996.3711,633,986.3711,629,990.3711" style="stroke: #A80036; stroke-width: 1.0;"/><line style="stroke: #A80036; stroke-width: 1.5;" x1="526.5" x2="526.5" y1="1333.4551" y2="1353.4551"/><polygon fill="#A80036" points="522.5,1343.4551,526.5,1353.4551,530.5,1343.4551,526.5,1347.4551" style="stroke: #A80036; stroke-width: 1.0;"/><line style="stroke: #A80036; stroke-width: 1.5;" x1="526.5" x2="526.5" y1="1387.5879" y2="1407.5879"/><polygon fill="#A80036" points="522.5,1397.5879,526.5,1407.5879,530.5,1397.5879,526.5,1401.5879" style="stroke: #A80036; stroke-width: 1.0;"/><line style="stroke: #A80036; stroke-width: 1.5;" x1="731.5" x2="731.5" y1="1279.3223" y2="1299.3223"/><polygon fill="#A80036" points="727.5,1289.3223,731.5,1299.3223,735.5,1289.3223,731.5,1293.3223" style="stroke: #A80036; stroke-width: 1.0;"/><line style="stroke: #A80036; stroke-width: 1.5;" x1="731.5" x2="731.5" y1="1333.4551" y2="1353.4551"/><polygon fill="#A80036" points="727.5,1343.4551,731.5,1353.4551,735.5,1343.4551,731.5,1347.4551" style="stroke: #A80036; stroke-width: 1.0;"/><line style="stroke: #A80036; stroke-width: 1.5;" x1="731.5" x2="731.5" y1="1387.5879" y2="1407.5879"/><polygon fill="#A80036" points="727.5,1397.5879,731.5,1407.5879,735.5,1397.5879,731.5,1401.5879" style="stroke: #A80036; stroke-width: 1.0;"/><line style="stroke: #A80036; stroke-width: 1.5;" x1="950.5" x2="950.5" y1="372.4688" y2="392.4688"/><polygon fill="#A80036" points="946.5,382.4688,950.5,392.4688,954.5,382.4688,950.5,386.4688" style="stroke: #A80036; stroke-width: 1.0;"/><line style="stroke: #A80036; stroke-width: 1.5;" x1="950.5" x2="950.5" y1="426.6016" y2="462.8115"/><polygon fill="#A80036" points="946.5,452.8115,950.5,462.8115,954.5,452.8115,950.5,456.8115" style="stroke: #A80036; stroke-width: 1.0;"/><line style="stroke: #A80036; stroke-width: 1.5;" x1="1328.5" x2="1328.5" y1="771.5527" y2="791.5527"/><polygon fill="#A80036" points="1324.5,781.5527,1328.5,791.5527,1332.5,781.5527,1328.5,785.5527" style="stroke: #A80036; stroke-width: 1.0;"/><line style="stroke: #A80036; stroke-width: 1.5;" x1="1328.5" x2="1328.5" y1="825.6855" y2="861.8955"/><polygon fill="#A80036" points="1324.5,851.8955,1328.5,861.8955,1332.5,851.8955,1328.5,855.8955" style="stroke: #A80036; stroke-width: 1.0;"/><line style="stroke: #A80036; stroke-width: 1.5;" x1="168.5" x2="168.5" y1="128.8281" y2="133.8281"/><line style="stroke: #A80036; stroke-width: 1.5;" x1="168.5" x2="629" y1="133.8281" y2="133.8281"/><line style="stroke: #A80036; stroke-width: 1.5;" x1="629" x2="629" y1="133.8281" y2="157.3828"/><polygon fill="#A80036" points="625,147.3828,629,157.3828,633,147.3828,629,151.3828" style="stroke: #A80036; stroke-width: 1.0;"/><line style="stroke: #A80036; stroke-width: 1.5;" x1="629" x2="629" y1="318.3359" y2="323.3359"/><line style="stroke: #A80036; stroke-width: 1.5;" x1="629" x2="950.5" y1="323.3359" y2="323.3359"/><line style="stroke: #A80036; stroke-width: 1.5;" x1="950.5" x2="950.5" y1="323.3359" y2="338.3359"/><polygon fill="#A80036" points="946.5,328.3359,950.5,338.3359,954.5,328.3359,950.5,332.3359" style="stroke: #A80036; stroke-width: 1.0;"/><line style="stroke: #A80036; stroke-width: 1.5;" x1="720" x2="720" y1="621.2871" y2="626.2871"/><line style="stroke: #A80036; stroke-width: 1.5;" x1="720" x2="259.5" y1="626.2871" y2="626.2871"/><line style="stroke: #A80036; stroke-width: 1.5;" x1="259.5" x2="259.5" y1="626.2871" y2="641.2871"/><polygon fill="#A80036" points="255.5,631.2871,259.5,641.2871,263.5,631.2871,259.5,635.2871" style="stroke: #A80036; stroke-width: 1.0;"/><line style="stroke: #A80036; stroke-width: 1.5;" x1="950.5" x2="950.5" y1="496.9443" y2="527.5493"/><line style="stroke: #A80036; stroke-width: 1.5;" x1="950.5" x2="629" y1="527.5493" y2="527.5493"/><line style="stroke: #A80036; stroke-width: 1.5;" x1="629" x2="629" y1="527.5493" y2="543.1543"/><polygon fill="#A80036" points="625,533.1543,629,543.1543,633,533.1543,629,537.1543" style="stroke: #A80036; stroke-width: 1.0;"/><line style="stroke: #A80036; stroke-width: 1.5;" x1="1328.5" x2="1328.5" y1="896.0283" y2="926.6333"/><line style="stroke: #A80036; stroke-width: 1.5;" x1="1328.5" x2="629" y1="926.6333" y2="926.6333"/><line style="stroke: #A80036; stroke-width: 1.5;" x1="629" x2="629" y1="926.6333" y2="942.2383"/><polygon fill="#A80036" points="625,932.2383,629,942.2383,633,932.2383,629,936.2383" style="stroke: #A80036; stroke-width: 1.0;"/><line style="stroke: #A80036; stroke-width: 1.5;" x1="629" x2="629" y1="1030.5039" y2="1036.1089"/><line style="stroke: #A80036; stroke-width: 1.5;" x1="629" x2="168.5" y1="1036.1089" y2="1036.1089"/><line style="stroke: #A80036; stroke-width: 1.5;" x1="168.5" x2="168.5" y1="1036.1089" y2="1066.7139"/><polygon fill="#A80036" points="164.5,1056.7139,168.5,1066.7139,172.5,1056.7139,168.5,1060.7139" style="stroke: #A80036; stroke-width: 1.0;"/><line style="stroke: #A80036; stroke-width: 1.5;" x1="66" x2="66" y1="1279.3223" y2="1284.3223"/><line style="stroke: #A80036; stroke-width: 1.5;" x1="66" x2="526.5" y1="1284.3223" y2="1284.3223"/><line style="stroke: #A80036; stroke-width: 1.5;" x1="526.5" x2="526.5" y1="1284.3223" y2="1299.3223"/><polygon fill="#A80036" points="522.5,1289.3223,526.5,1299.3223,530.5,1289.3223,526.5,1293.3223" style="stroke: #A80036; stroke-width: 1.0;"/><line style="stroke: #A80036; stroke-width: 1.5;" x1="216" x2="731.5" y1="1213.1895" y2="1213.1895"/><line style="stroke: #A80036; stroke-width: 1.5;" x1="731.5" x2="731.5" y1="1213.1895" y2="1245.1895"/><polygon fill="#A80036" points="727.5,1235.1895,731.5,1245.1895,735.5,1235.1895,731.5,1239.1895" style="stroke: #A80036; stroke-width: 1.0;"/><text fill="#000000" font-family="sans-serif" font-size="18" lengthAdjust="spacingAndGlyphs" textLength="90" x="176.25" y="29.6992">知財担当者</text><text fill="#000000" font-family="sans-serif" font-size="18" lengthAdjust="spacingAndGlyphs" textLength="126" x="572.25" y="29.6992">自動化システム</text><text fill="#000000" font-family="sans-serif" font-size="18" lengthAdjust="spacingAndGlyphs" textLength="152" x="572.25" y="50.8984">(Next.js + Vercel)</text><text fill="#000000" font-family="sans-serif" font-size="18" lengthAdjust="spacingAndGlyphs" textLength="97" x="992.25" y="29.6992">AI Agent 1:</text><text fill="#000000" font-family="sans-serif" font-size="18" lengthAdjust="spacingAndGlyphs" textLength="126" x="992.25" y="50.8984">侵害可能性分析</text><text fill="#000000" font-family="sans-serif" font-size="18" lengthAdjust="spacingAndGlyphs" textLength="97" x="1366.5" y="29.6992">AI Agent 2:</text><text fill="#000000" font-family="sans-serif" font-size="18" lengthAdjust="spacingAndGlyphs" textLength="108" x="1366.5" y="50.8984">売上推定分析</text><line style="stroke: #000000; stroke-width: 2.0;" x1="10" x2="10" y1="12.2969" y2="1445.5879"/><line style="stroke: #000000; stroke-width: 2.0;" x1="427.5" x2="427.5" y1="12.2969" y2="1445.5879"/><line style="stroke: #000000; stroke-width: 2.0;" x1="869" x2="869" y1="12.2969" y2="1445.5879"/><line style="stroke: #000000; stroke-width: 2.0;" x1="1241.5" x2="1241.5" y1="12.2969" y2="1445.5879"/><line style="stroke: #000000; stroke-width: 2.0;" x1="1604.5" x2="1604.5" y1="12.2969" y2="1445.5879"/><!--
@startuml
skinparam backgroundColor #FFFFFF
skinparam swimlaneWidth 320

|知財担当者|
start
:特許権者リストを入力;

|自動化システム\n(Next.js + Vercel)|
:特許情報を自動取得;
note right
  **データソース**
  ・J-PlatPat API
  ・特許庁データベース
  ・特許公報
end note

:請求項を自動抽出・構造化;
:侵害調査エージェントを起動;

|AI Agent 1:\n侵害可能性分析|
:Web検索による製品調査;
:構成要件マッチング分析;
:充足性判断レポート生成;
note right
  **自動実行内容**
  ・製品仕様の自動収集
  ・構成要件の自動マッピング
  ・充足性の自動判定
  ・根拠URLの自動記録
end note

|自動化システム\n(Next.js + Vercel)|
if (侵害可能性あり?) then (○)
  :売上推定エージェントを起動;
else (×)
  :結果をSupabaseに保存;
  |知財担当者|
  :結果を確認;
  stop
endif

|AI Agent 2:\n売上推定分析|
:企業・製品情報を収集;
:市場規模・シェア分析;
:売上・収益性レポート生成;
note right
  **自動実行内容**
  ・企業財務情報の収集
  ・製品売上の推定
  ・市場シェアの分析
  ・収益ランクの自動判定
end note

|自動化システム\n(Next.js + Vercel)|
:DD管理シートを自動更新;
:通知を送信;

|知財担当者|
:ダッシュボードで確認;
note right
  **確認内容**
  ・優先度ランク順の表示
  ・侵害可能性の詳細
  ・収益見込みの可視化
  ・分析根拠へのリンク
end note

:総合的に判断;

if (訴訟すべきか?) then (Yes)
  :訴訟準備開始;
  |自動化システム\n(Next.js + Vercel)|
  :ステータス更新（訴訟準備中）;
  :履歴をSupabaseに記録;
  stop
else (No)
  :終了;
  |自動化システム\n(Next.js + Vercel)|
  :ステータス更新（却下/保留）;
  :履歴をSupabaseに記録;
  stop
endif

@enduml

PlantUML version 1.2019.06(Sat May 25 02:10:25 JST 2019)
(GPL source distribution)
Java Runtime: OpenJDK Runtime Environment
JVM: OpenJDK 64-Bit Server VM
Java Version: 21.0.8+9-LTS
Operating System: Mac OS X
OS Version: 15.6.1
Default Encoding: UTF-8
Language: ja
Country: JP
--></g></svg>