<?xml version="1.0" encoding="UTF-8" standalone="no"?><svg xmlns="http://www.w3.org/2000/svg" xmlns:xlink="http://www.w3.org/1999/xlink" contentScriptType="application/ecmascript" contentStyleType="text/css" height="1349px" preserveAspectRatio="none" style="width:1533px;height:1349px;" version="1.1" viewBox="0 0 1533 1349" width="1533px" zoomAndPan="magnify"><defs><filter height="300%" id="f1s39tswtpa0vl" width="300%" x="-1" y="-1"><feGaussianBlur result="blurOut" stdDeviation="2.0"/><feColorMatrix in="blurOut" result="blurOut2" type="matrix" values="0 0 0 0 0 0 0 0 0 0 0 0 0 0 0 0 0 0 .4 0"/><feOffset dx="4.0" dy="4.0" in="blurOut2" result="blurOut3"/><feBlend in="SourceGraphic" in2="blurOut3" mode="normal"/></filter></defs><g><ellipse cx="123.5" cy="43.4961" fill="#000000" filter="url(#f1s39tswtpa0vl)" rx="10" ry="10" style="stroke: none; stroke-width: 1.0;"/><rect fill="#FEFECE" filter="url(#f1s39tswtpa0vl)" height="34.1328" rx="12.5" ry="12.5" style="stroke: #A80036; stroke-width: 1.5;" width="104" x="71.5" y="73.4961"/><text fill="#000000" font-family="sans-serif" font-size="12" lengthAdjust="spacingAndGlyphs" textLength="84" x="81.5" y="95.0977">特許権者を選定</text><rect fill="#90EE90" filter="url(#f1s39tswtpa0vl)" height="144.5293" style="stroke: #000000; stroke-width: 2.0;" width="243" x="61.5" y="118.082"/><path d="M155.5,119.082 L155.5,144.0586 L145.5,154.0586 L61.5,154.0586 " fill="none" style="stroke: #000000; stroke-width: 2.0;"/><text fill="#000000" font-family="sans-serif" font-size="14" lengthAdjust="spacingAndGlyphs" textLength="84" x="64.5" y="132.6172">自動化対象①</text><text fill="#000000" font-family="sans-serif" font-size="14" lengthAdjust="spacingAndGlyphs" textLength="84" x="64.5" y="149.1055">特許一覧作成</text><path d="M195.5,164.0586 L195.5,203.335 L175.5,207.335 L195.5,211.335 L195.5,250.6113 A0,0 0 0 0 195.5,250.6113 L294.5,250.6113 A0,0 0 0 0 294.5,250.6113 L294.5,174.0586 L284.5,164.0586 L195.5,164.0586 A0,0 0 0 0 195.5,164.0586 " fill="#FBFB77" filter="url(#f1s39tswtpa0vl)" style="stroke: #A80036; stroke-width: 1.0;"/><path d="M284.5,164.0586 L284.5,174.0586 L294.5,174.0586 L284.5,164.0586 " fill="#FBFB77" style="stroke: #A80036; stroke-width: 1.0;"/><text fill="#000000" font-family="sans-serif" font-size="13" font-weight="bold" lengthAdjust="spacingAndGlyphs" textLength="52" x="201.5" y="181.627">出力項目</text><text fill="#000000" font-family="sans-serif" font-size="13" lengthAdjust="spacingAndGlyphs" textLength="65" x="201.5" y="196.9375">・特許権者</text><text fill="#000000" font-family="sans-serif" font-size="13" lengthAdjust="spacingAndGlyphs" textLength="65" x="201.5" y="212.248">・特許番号</text><text fill="#000000" font-family="sans-serif" font-size="13" lengthAdjust="spacingAndGlyphs" textLength="78" x="201.5" y="227.5586">・発明の内容</text><text fill="#000000" font-family="sans-serif" font-size="13" lengthAdjust="spacingAndGlyphs" textLength="65" x="201.5" y="242.8691">・特許概要</text><rect fill="#FEFECE" filter="url(#f1s39tswtpa0vl)" height="34.1328" rx="12.5" ry="12.5" style="stroke: #A80036; stroke-width: 1.5;" width="104" x="71.5" y="190.2686"/><text fill="#000000" font-family="sans-serif" font-size="12" lengthAdjust="spacingAndGlyphs" textLength="84" x="81.5" y="211.8701">特許一覧を作成</text><rect fill="#FEFECE" filter="url(#f1s39tswtpa0vl)" height="34.1328" rx="12.5" ry="12.5" style="stroke: #A80036; stroke-width: 1.5;" width="158" x="44.5" y="1071.0703"/><text fill="#000000" font-family="sans-serif" font-size="12" lengthAdjust="spacingAndGlyphs" textLength="138" x="54.5" y="1092.6719">DD管理シートをレビュー</text><path d="M189.5,1115.2031 L189.5,1154.4795 L169.5,1158.4795 L189.5,1162.4795 L189.5,1201.7559 A0,0 0 0 0 189.5,1201.7559 L288.5,1201.7559 A0,0 0 0 0 288.5,1201.7559 L288.5,1125.2031 L278.5,1115.2031 L189.5,1115.2031 A0,0 0 0 0 189.5,1115.2031 " fill="#FBFB77" filter="url(#f1s39tswtpa0vl)" style="stroke: #A80036; stroke-width: 1.0;"/><path d="M278.5,1115.2031 L278.5,1125.2031 L288.5,1125.2031 L278.5,1115.2031 " fill="#FBFB77" style="stroke: #A80036; stroke-width: 1.0;"/><text fill="#000000" font-family="sans-serif" font-size="13" font-weight="bold" lengthAdjust="spacingAndGlyphs" textLength="52" x="195.5" y="1132.7715">判断基準</text><text fill="#000000" font-family="sans-serif" font-size="13" lengthAdjust="spacingAndGlyphs" textLength="78" x="195.5" y="1148.082">・侵害可能性</text><text fill="#000000" font-family="sans-serif" font-size="13" lengthAdjust="spacingAndGlyphs" textLength="78" x="195.5" y="1163.3926">・収益見込み</text><text fill="#000000" font-family="sans-serif" font-size="13" lengthAdjust="spacingAndGlyphs" textLength="78" x="195.5" y="1178.7031">・無効リスク</text><text fill="#000000" font-family="sans-serif" font-size="13" lengthAdjust="spacingAndGlyphs" textLength="78" x="195.5" y="1194.0137">・戦略的価値</text><rect fill="#FEFECE" filter="url(#f1s39tswtpa0vl)" height="34.1328" rx="12.5" ry="12.5" style="stroke: #A80036; stroke-width: 1.5;" width="92" x="77.5" y="1141.4131"/><text fill="#000000" font-family="sans-serif" font-size="12" lengthAdjust="spacingAndGlyphs" textLength="72" x="87.5" y="1163.0146">総合的に判断</text><polygon fill="#FEFECE" filter="url(#f1s39tswtpa0vl)" points="88,1221.7559,159,1221.7559,171,1233.7559,159,1245.7559,88,1245.7559,76,1233.7559,88,1221.7559" style="stroke: #A80036; stroke-width: 1.5;"/><text fill="#000000" font-family="sans-serif" font-size="11" lengthAdjust="spacingAndGlyphs" textLength="71" x="88" y="1237.9131">訴訟すべきか?</text><text fill="#000000" font-family="sans-serif" font-size="11" lengthAdjust="spacingAndGlyphs" textLength="19" x="57" y="1231.4355">Yes</text><text fill="#000000" font-family="sans-serif" font-size="11" lengthAdjust="spacingAndGlyphs" textLength="15" x="171" y="1231.4355">No</text><rect fill="#FEFECE" filter="url(#f1s39tswtpa0vl)" height="34.1328" rx="12.5" ry="12.5" style="stroke: #A80036; stroke-width: 1.5;" width="92" x="20" y="1255.7559"/><text fill="#000000" font-family="sans-serif" font-size="12" lengthAdjust="spacingAndGlyphs" textLength="72" x="30" y="1277.3574">訴訟準備開始</text><ellipse cx="66" cy="1320.8887" fill="#FFFFFF" filter="url(#f1s39tswtpa0vl)" rx="11" ry="11" style="stroke: #000000; stroke-width: 1.0;"/><ellipse cx="66" cy="1320.8887" fill="#000000" rx="6" ry="6" style="stroke: #7F7F7F; stroke-width: 1.0;"/><rect fill="#FEFECE" filter="url(#f1s39tswtpa0vl)" height="34.1328" rx="12.5" ry="12.5" style="stroke: #A80036; stroke-width: 1.5;" width="44" x="159" y="1255.7559"/><text fill="#000000" font-family="sans-serif" font-size="12" lengthAdjust="spacingAndGlyphs" textLength="24" x="169" y="1277.3574">終了</text><ellipse cx="181" cy="1320.8887" fill="#FFFFFF" filter="url(#f1s39tswtpa0vl)" rx="11" ry="11" style="stroke: #000000; stroke-width: 1.0;"/><ellipse cx="181" cy="1320.8887" fill="#000000" rx="6" ry="6" style="stroke: #7F7F7F; stroke-width: 1.0;"/><rect fill="#FEFECE" filter="url(#f1s39tswtpa0vl)" height="34.1328" rx="12.5" ry="12.5" style="stroke: #A80036; stroke-width: 1.5;" width="104" x="556" y="282.6113"/><text fill="#000000" font-family="sans-serif" font-size="12" lengthAdjust="spacingAndGlyphs" textLength="84" x="566" y="304.2129">特許情報を受領</text><rect fill="#90EE90" filter="url(#f1s39tswtpa0vl)" height="279.9043" style="stroke: #000000; stroke-width: 2.0;" width="413" x="510" y="327.1973"/><path d="M604,328.1973 L604,353.1738 L594,363.1738 L510,363.1738 " fill="none" style="stroke: #000000; stroke-width: 2.0;"/><text fill="#000000" font-family="sans-serif" font-size="14" lengthAdjust="spacingAndGlyphs" textLength="84" x="513" y="341.7324">自動化対象②</text><text fill="#000000" font-family="sans-serif" font-size="14" lengthAdjust="spacingAndGlyphs" textLength="56" x="513" y="358.2207">侵害調査</text><path d="M710,373.1738 L710,404.7949 L690,408.7949 L710,412.7949 L710,444.416 A0,0 0 0 0 710,444.416 L913,444.416 A0,0 0 0 0 913,444.416 L913,383.1738 L903,373.1738 L710,373.1738 A0,0 0 0 0 710,373.1738 " fill="#FBFB77" filter="url(#f1s39tswtpa0vl)" style="stroke: #A80036; stroke-width: 1.0;"/><path d="M903,373.1738 L903,383.1738 L913,383.1738 L903,373.1738 " fill="#FBFB77" style="stroke: #A80036; stroke-width: 1.0;"/><text fill="#000000" font-family="sans-serif" font-size="13" font-weight="bold" lengthAdjust="spacingAndGlyphs" textLength="91" x="716" y="390.7422">プロンプト内容</text><text fill="#000000" font-family="sans-serif" font-size="13" lengthAdjust="spacingAndGlyphs" textLength="177" x="716" y="406.0527">・請求項1の全構成要件の照合</text><text fill="#000000" font-family="sans-serif" font-size="13" lengthAdjust="spacingAndGlyphs" textLength="182" x="716" y="421.3633">・Web検索による製品仕様確認</text><text fill="#000000" font-family="sans-serif" font-size="13" lengthAdjust="spacingAndGlyphs" textLength="169" x="716" y="436.6738">・構成要件ごとの充足性判断</text><rect fill="#FEFECE" filter="url(#f1s39tswtpa0vl)" height="34.1328" rx="12.5" ry="12.5" style="stroke: #A80036; stroke-width: 1.5;" width="164" x="526" y="391.7285"/><text fill="#000000" font-family="sans-serif" font-size="12" lengthAdjust="spacingAndGlyphs" textLength="144" x="536" y="413.3301">侵害調査プロンプトを準備</text><polygon fill="#FEFECE" filter="url(#f1s39tswtpa0vl)" points="567,627.1016,649,627.1016,661,639.1016,649,651.1016,567,651.1016,555,639.1016,567,627.1016" style="stroke: #A80036; stroke-width: 1.5;"/><text fill="#000000" font-family="sans-serif" font-size="11" lengthAdjust="spacingAndGlyphs" textLength="82" x="567" y="643.2588">侵害可能性あり?</text><text fill="#000000" font-family="sans-serif" font-size="11" lengthAdjust="spacingAndGlyphs" textLength="6" x="549" y="636.7813">○</text><text fill="#000000" font-family="sans-serif" font-size="11" lengthAdjust="spacingAndGlyphs" textLength="9" x="661" y="636.7813">×</text><rect fill="#90EE90" filter="url(#f1s39tswtpa0vl)" height="252.7949" style="stroke: #000000; stroke-width: 2.0;" width="391" x="314.5" y="671.1016"/><path d="M408.5,672.1016 L408.5,697.0781 L398.5,707.0781 L314.5,707.0781 " fill="none" style="stroke: #000000; stroke-width: 2.0;"/><text fill="#000000" font-family="sans-serif" font-size="14" lengthAdjust="spacingAndGlyphs" textLength="84" x="317.5" y="685.6367">自動化対象③</text><text fill="#000000" font-family="sans-serif" font-size="14" lengthAdjust="spacingAndGlyphs" textLength="56" x="317.5" y="702.125">売上推定</text><path d="M502.5,717.0781 L502.5,756.3545 L482.5,760.3545 L502.5,764.3545 L502.5,803.6309 A0,0 0 0 0 502.5,803.6309 L695.5,803.6309 A0,0 0 0 0 695.5,803.6309 L695.5,727.0781 L685.5,717.0781 L502.5,717.0781 A0,0 0 0 0 502.5,717.0781 " fill="#FBFB77" filter="url(#f1s39tswtpa0vl)" style="stroke: #A80036; stroke-width: 1.0;"/><path d="M685.5,717.0781 L685.5,727.0781 L695.5,727.0781 L685.5,717.0781 " fill="#FBFB77" style="stroke: #A80036; stroke-width: 1.0;"/><text fill="#000000" font-family="sans-serif" font-size="13" font-weight="bold" lengthAdjust="spacingAndGlyphs" textLength="52" x="508.5" y="734.6465">推定対象</text><text fill="#000000" font-family="sans-serif" font-size="13" lengthAdjust="spacingAndGlyphs" textLength="91" x="508.5" y="749.957">・被疑侵害企業</text><text fill="#000000" font-family="sans-serif" font-size="13" lengthAdjust="spacingAndGlyphs" textLength="52" x="508.5" y="765.2676">・製品名</text><text fill="#000000" font-family="sans-serif" font-size="13" lengthAdjust="spacingAndGlyphs" textLength="78" x="508.5" y="780.5781">・推定売上額</text><text fill="#000000" font-family="sans-serif" font-size="13" lengthAdjust="spacingAndGlyphs" textLength="172" x="508.5" y="795.8887">・収益見込みランク（A〜E）</text><rect fill="#FEFECE" filter="url(#f1s39tswtpa0vl)" height="34.1328" rx="12.5" ry="12.5" style="stroke: #A80036; stroke-width: 1.5;" width="152" x="330.5" y="743.2881"/><text fill="#000000" font-family="sans-serif" font-size="12" lengthAdjust="spacingAndGlyphs" textLength="132" x="340.5" y="764.8896">被疑侵害製品の売上推定</text><path d="M695,933.8965 L695,988.4834 L675,992.4834 L695,996.4834 L695,1051.0703 A0,0 0 0 0 695,1051.0703 L901,1051.0703 A0,0 0 0 0 901,1051.0703 L901,943.8965 L891,933.8965 L695,933.8965 A0,0 0 0 0 695,933.8965 " fill="#FBFB77" filter="url(#f1s39tswtpa0vl)" style="stroke: #A80036; stroke-width: 1.0;"/><path d="M891,933.8965 L891,943.8965 L901,943.8965 L891,933.8965 " fill="#FBFB77" style="stroke: #A80036; stroke-width: 1.0;"/><text fill="#000000" font-family="sans-serif" font-size="13" font-weight="bold" lengthAdjust="spacingAndGlyphs" textLength="52" x="701" y="951.4648">記録内容</text><text fill="#000000" font-family="sans-serif" font-size="13" lengthAdjust="spacingAndGlyphs" textLength="149" x="701" y="966.7754">・侵害可能性（○/×/△）</text><text fill="#000000" font-family="sans-serif" font-size="13" lengthAdjust="spacingAndGlyphs" textLength="130" x="701" y="982.0859">・侵害企業・製品候補</text><text fill="#000000" font-family="sans-serif" font-size="13" lengthAdjust="spacingAndGlyphs" textLength="133" x="701" y="997.3965">・収益見込み（A〜E）</text><text fill="#000000" font-family="sans-serif" font-size="13" lengthAdjust="spacingAndGlyphs" textLength="185" x="701" y="1012.707">・関連情報（ChatGPT URL等）</text><text fill="#000000" font-family="sans-serif" font-size="13" lengthAdjust="spacingAndGlyphs" textLength="78" x="701" y="1028.0176">・無効可能性</text><text fill="#000000" font-family="sans-serif" font-size="13" lengthAdjust="spacingAndGlyphs" textLength="78" x="701" y="1043.3281">・進捗・メモ</text><rect fill="#FEFECE" filter="url(#f1s39tswtpa0vl)" height="34.1328" rx="12.5" ry="12.5" style="stroke: #A80036; stroke-width: 1.5;" width="134" x="541" y="975.417"/><text fill="#000000" font-family="sans-serif" font-size="12" lengthAdjust="spacingAndGlyphs" textLength="114" x="551" y="997.0186">DD管理シートに記録</text><rect fill="#90EE90" filter="url(#f1s39tswtpa0vl)" height="279.9043" style="stroke: #000000; stroke-width: 2.0;" width="395.5" x="1117" y="327.1973"/><path d="M1211,328.1973 L1211,353.1738 L1201,363.1738 L1117,363.1738 " fill="none" style="stroke: #000000; stroke-width: 2.0;"/><text fill="#000000" font-family="sans-serif" font-size="14" lengthAdjust="spacingAndGlyphs" textLength="84" x="1120" y="341.7324">自動化対象②</text><text fill="#000000" font-family="sans-serif" font-size="14" lengthAdjust="spacingAndGlyphs" textLength="56" x="1120" y="358.2207">侵害調査</text><rect fill="#FEFECE" filter="url(#f1s39tswtpa0vl)" height="34.1328" rx="12.5" ry="12.5" style="stroke: #A80036; stroke-width: 1.5;" width="140" x="1145" y="464.416"/><text fill="#000000" font-family="sans-serif" font-size="12" lengthAdjust="spacingAndGlyphs" textLength="120" x="1155" y="486.0176">侵害可能性分析を実行</text><path d="M1323,508.5488 L1323,547.8252 L1303,551.8252 L1323,555.8252 L1323,595.1016 A0,0 0 0 0 1323,595.1016 L1498,595.1016 A0,0 0 0 0 1498,595.1016 L1498,518.5488 L1488,508.5488 L1323,508.5488 A0,0 0 0 0 1323,508.5488 " fill="#FBFB77" filter="url(#f1s39tswtpa0vl)" style="stroke: #A80036; stroke-width: 1.0;"/><path d="M1488,508.5488 L1488,518.5488 L1498,518.5488 L1488,508.5488 " fill="#FBFB77" style="stroke: #A80036; stroke-width: 1.0;"/><text fill="#000000" font-family="sans-serif" font-size="13" font-weight="bold" lengthAdjust="spacingAndGlyphs" textLength="52" x="1329" y="526.1172">分析内容</text><text fill="#000000" font-family="sans-serif" font-size="13" lengthAdjust="spacingAndGlyphs" textLength="65" x="1329" y="541.4277">・構成要件</text><text fill="#000000" font-family="sans-serif" font-size="13" lengthAdjust="spacingAndGlyphs" textLength="104" x="1329" y="556.7383">・製品の対応構成</text><text fill="#000000" font-family="sans-serif" font-size="13" lengthAdjust="spacingAndGlyphs" textLength="116" x="1329" y="572.0488">・充足判断（○/×）</text><text fill="#000000" font-family="sans-serif" font-size="13" lengthAdjust="spacingAndGlyphs" textLength="154" x="1329" y="587.3594">・根拠（URL、公開情報）</text><rect fill="#FEFECE" filter="url(#f1s39tswtpa0vl)" height="34.1328" rx="12.5" ry="12.5" style="stroke: #A80036; stroke-width: 1.5;" width="176" x="1127" y="534.7588"/><text fill="#000000" font-family="sans-serif" font-size="12" lengthAdjust="spacingAndGlyphs" textLength="156" x="1137" y="556.3604">構成要件分析レポートを生成</text><rect fill="#90EE90" filter="url(#f1s39tswtpa0vl)" height="252.7949" style="stroke: #000000; stroke-width: 2.0;" width="379.5" x="933" y="671.1016"/><path d="M1027,672.1016 L1027,697.0781 L1017,707.0781 L933,707.0781 " fill="none" style="stroke: #000000; stroke-width: 2.0;"/><text fill="#000000" font-family="sans-serif" font-size="14" lengthAdjust="spacingAndGlyphs" textLength="84" x="936" y="685.6367">自動化対象③</text><text fill="#000000" font-family="sans-serif" font-size="14" lengthAdjust="spacingAndGlyphs" textLength="56" x="936" y="702.125">売上推定</text><rect fill="#FEFECE" filter="url(#f1s39tswtpa0vl)" height="34.1328" rx="12.5" ry="12.5" style="stroke: #A80036; stroke-width: 1.5;" width="152" x="949" y="823.6309"/><text fill="#000000" font-family="sans-serif" font-size="12" lengthAdjust="spacingAndGlyphs" textLength="132" x="959" y="845.2324">売上・収益性分析を実行</text><rect fill="#FEFECE" filter="url(#f1s39tswtpa0vl)" height="34.1328" rx="12.5" ry="12.5" style="stroke: #A80036; stroke-width: 1.5;" width="164" x="943" y="877.7637"/><text fill="#000000" font-family="sans-serif" font-size="12" lengthAdjust="spacingAndGlyphs" textLength="144" x="953" y="899.3652">収益見込みレポートを生成</text><rect fill="#FEFECE" filter="url(#f1s39tswtpa0vl)" height="34.1328" rx="12.5" ry="12.5" style="stroke: #A80036; stroke-width: 1.5;" width="168" x="1332.5" y="671.1016"/><text fill="#000000" font-family="sans-serif" font-size="12" lengthAdjust="spacingAndGlyphs" textLength="148" x="1342.5" y="692.7031">DD管理シートに記録（×）</text><ellipse cx="1416.5" cy="744.2344" fill="#FFFFFF" filter="url(#f1s39tswtpa0vl)" rx="11" ry="11" style="stroke: #000000; stroke-width: 1.0;"/><ellipse cx="1416.5" cy="744.2344" fill="#000000" rx="6" ry="6" style="stroke: #7F7F7F; stroke-width: 1.0;"/><line style="stroke: #A80036; stroke-width: 1.5;" x1="123.5" x2="123.5" y1="53.4961" y2="73.4961"/><polygon fill="#A80036" points="119.5,63.4961,123.5,73.4961,127.5,63.4961,123.5,67.4961" style="stroke: #A80036; stroke-width: 1.0;"/><line style="stroke: #A80036; stroke-width: 1.5;" x1="123.5" x2="123.5" y1="107.6289" y2="190.2686"/><polygon fill="#A80036" points="119.5,180.2686,123.5,190.2686,127.5,180.2686,123.5,184.2686" style="stroke: #A80036; stroke-width: 1.0;"/><line style="stroke: #A80036; stroke-width: 1.5;" x1="123.5" x2="123.5" y1="1105.2031" y2="1141.4131"/><polygon fill="#A80036" points="119.5,1131.4131,123.5,1141.4131,127.5,1131.4131,123.5,1135.4131" style="stroke: #A80036; stroke-width: 1.0;"/><line style="stroke: #A80036; stroke-width: 1.5;" x1="66" x2="66" y1="1289.8887" y2="1309.8887"/><polygon fill="#A80036" points="62,1299.8887,66,1309.8887,70,1299.8887,66,1303.8887" style="stroke: #A80036; stroke-width: 1.0;"/><line style="stroke: #A80036; stroke-width: 1.5;" x1="181" x2="181" y1="1289.8887" y2="1309.8887"/><polygon fill="#A80036" points="177,1299.8887,181,1309.8887,185,1299.8887,181,1303.8887" style="stroke: #A80036; stroke-width: 1.0;"/><line style="stroke: #A80036; stroke-width: 1.5;" x1="76" x2="66" y1="1233.7559" y2="1233.7559"/><line style="stroke: #A80036; stroke-width: 1.5;" x1="66" x2="66" y1="1233.7559" y2="1255.7559"/><polygon fill="#A80036" points="62,1245.7559,66,1255.7559,70,1245.7559,66,1249.7559" style="stroke: #A80036; stroke-width: 1.0;"/><line style="stroke: #A80036; stroke-width: 1.5;" x1="171" x2="181" y1="1233.7559" y2="1233.7559"/><line style="stroke: #A80036; stroke-width: 1.5;" x1="181" x2="181" y1="1233.7559" y2="1255.7559"/><polygon fill="#A80036" points="177,1245.7559,181,1255.7559,185,1245.7559,181,1249.7559" style="stroke: #A80036; stroke-width: 1.0;"/><line style="stroke: #A80036; stroke-width: 1.5;" x1="123.5" x2="123.5" y1="1175.5459" y2="1221.7559"/><polygon fill="#A80036" points="119.5,1211.7559,123.5,1221.7559,127.5,1211.7559,123.5,1215.7559" style="stroke: #A80036; stroke-width: 1.0;"/><line style="stroke: #A80036; stroke-width: 1.5;" x1="608" x2="608" y1="316.7441" y2="391.7285"/><polygon fill="#A80036" points="604,381.7285,608,391.7285,612,381.7285,608,385.7285" style="stroke: #A80036; stroke-width: 1.0;"/><line style="stroke: #A80036; stroke-width: 1.5;" x1="555" x2="406.5" y1="639.1016" y2="639.1016"/><line style="stroke: #A80036; stroke-width: 1.5;" x1="406.5" x2="406.5" y1="639.1016" y2="743.2881"/><polygon fill="#A80036" points="402.5,733.2881,406.5,743.2881,410.5,733.2881,406.5,737.2881" style="stroke: #A80036; stroke-width: 1.0;"/><line style="stroke: #A80036; stroke-width: 1.5;" x1="1025" x2="1025" y1="911.8965" y2="927.8965"/><line style="stroke: #A80036; stroke-width: 1.5;" x1="1025" x2="608" y1="927.8965" y2="927.8965"/><line style="stroke: #A80036; stroke-width: 1.5;" x1="608" x2="608" y1="927.8965" y2="975.417"/><polygon fill="#A80036" points="604,965.417,608,975.417,612,965.417,608,969.417" style="stroke: #A80036; stroke-width: 1.0;"/><line style="stroke: #A80036; stroke-width: 1.5;" x1="1215" x2="1215" y1="498.5488" y2="534.7588"/><polygon fill="#A80036" points="1211,524.7588,1215,534.7588,1219,524.7588,1215,528.7588" style="stroke: #A80036; stroke-width: 1.0;"/><line style="stroke: #A80036; stroke-width: 1.5;" x1="1025" x2="1025" y1="857.7637" y2="877.7637"/><polygon fill="#A80036" points="1021,867.7637,1025,877.7637,1029,867.7637,1025,871.7637" style="stroke: #A80036; stroke-width: 1.0;"/><line style="stroke: #A80036; stroke-width: 1.5;" x1="1416.5" x2="1416.5" y1="705.2344" y2="733.2344"/><polygon fill="#A80036" points="1412.5,723.2344,1416.5,733.2344,1420.5,723.2344,1416.5,727.2344" style="stroke: #A80036; stroke-width: 1.0;"/><line style="stroke: #A80036; stroke-width: 1.5;" x1="123.5" x2="123.5" y1="224.4014" y2="257.0063"/><line style="stroke: #A80036; stroke-width: 1.5;" x1="123.5" x2="608" y1="257.0063" y2="257.0063"/><line style="stroke: #A80036; stroke-width: 1.5;" x1="608" x2="608" y1="257.0063" y2="282.6113"/><polygon fill="#A80036" points="604,272.6113,608,282.6113,612,272.6113,608,276.6113" style="stroke: #A80036; stroke-width: 1.0;"/><line style="stroke: #A80036; stroke-width: 1.5;" x1="608" x2="608" y1="425.8613" y2="449.416"/><line style="stroke: #A80036; stroke-width: 1.5;" x1="608" x2="1215" y1="449.416" y2="449.416"/><line style="stroke: #A80036; stroke-width: 1.5;" x1="1215" x2="1215" y1="449.416" y2="464.416"/><polygon fill="#A80036" points="1211,454.416,1215,464.416,1219,454.416,1215,458.416" style="stroke: #A80036; stroke-width: 1.0;"/><line style="stroke: #A80036; stroke-width: 1.5;" x1="406.5" x2="406.5" y1="777.4209" y2="808.0259"/><line style="stroke: #A80036; stroke-width: 1.5;" x1="406.5" x2="1025" y1="808.0259" y2="808.0259"/><line style="stroke: #A80036; stroke-width: 1.5;" x1="1025" x2="1025" y1="808.0259" y2="823.6309"/><polygon fill="#A80036" points="1021,813.6309,1025,823.6309,1029,813.6309,1025,817.6309" style="stroke: #A80036; stroke-width: 1.0;"/><line style="stroke: #A80036; stroke-width: 1.5;" x1="661" x2="1416.5" y1="639.1016" y2="639.1016"/><line style="stroke: #A80036; stroke-width: 1.5;" x1="1416.5" x2="1416.5" y1="639.1016" y2="671.1016"/><polygon fill="#A80036" points="1412.5,661.1016,1416.5,671.1016,1420.5,661.1016,1416.5,665.1016" style="stroke: #A80036; stroke-width: 1.0;"/><line style="stroke: #A80036; stroke-width: 1.5;" x1="1215" x2="1215" y1="568.8916" y2="601.4966"/><line style="stroke: #A80036; stroke-width: 1.5;" x1="1215" x2="608" y1="601.4966" y2="601.4966"/><line style="stroke: #A80036; stroke-width: 1.5;" x1="608" x2="608" y1="601.4966" y2="627.1016"/><polygon fill="#A80036" points="604,617.1016,608,627.1016,612,617.1016,608,621.1016" style="stroke: #A80036; stroke-width: 1.0;"/><line style="stroke: #A80036; stroke-width: 1.5;" x1="608" x2="608" y1="1009.5498" y2="1047.8101"/><line style="stroke: #A80036; stroke-width: 1.5;" x1="608" x2="123.5" y1="1047.8101" y2="1047.8101"/><line style="stroke: #A80036; stroke-width: 1.5;" x1="123.5" x2="123.5" y1="1047.8101" y2="1071.0703"/><polygon fill="#A80036" points="119.5,1061.0703,123.5,1071.0703,127.5,1061.0703,123.5,1065.0703" style="stroke: #A80036; stroke-width: 1.0;"/><text fill="#000000" font-family="sans-serif" font-size="18" lengthAdjust="spacingAndGlyphs" textLength="90" x="116.75" y="29.6992">知財担当者</text><text fill="#000000" font-family="sans-serif" font-size="18" lengthAdjust="spacingAndGlyphs" textLength="90" x="573.25" y="29.6992">技術担当者</text><text fill="#000000" font-family="sans-serif" font-size="18" lengthAdjust="spacingAndGlyphs" textLength="128" x="1161.25" y="29.6992">ChatGPT (手動)</text><line style="stroke: #000000; stroke-width: 2.0;" x1="10" x2="10" y1="12.2969" y2="1337.8887"/><line style="stroke: #000000; stroke-width: 2.0;" x1="309.5" x2="309.5" y1="12.2969" y2="1337.8887"/><line style="stroke: #000000; stroke-width: 2.0;" x1="928" x2="928" y1="12.2969" y2="1337.8887"/><line style="stroke: #000000; stroke-width: 2.0;" x1="1521.5" x2="1521.5" y1="12.2969" y2="1337.8887"/><!--
@startuml
skinparam backgroundColor #FFFFFF
skinparam swimlaneWidth 300

|知財担当者|
start
:特許権者を選定;

partition "自動化対象①\n特許一覧作成" #TECHNOLOGY {
  :特許一覧を作成;
}
note right
  **出力項目**
  ・特許権者
  ・特許番号
  ・発明の内容
  ・特許概要
end note

|技術担当者|
:特許情報を受領;

partition "自動化対象②\n侵害調査" #TECHNOLOGY {
  :侵害調査プロンプトを準備;
  note right
    **プロンプト内容**
    ・請求項1の全構成要件の照合
    ・Web検索による製品仕様確認
    ・構成要件ごとの充足性判断
  end note

  |ChatGPT (手動)|
  :侵害可能性分析を実行;
  :構成要件分析レポートを生成;
  note right
    **分析内容**
    ・構成要件
    ・製品の対応構成
    ・充足判断（○/×）
    ・根拠（URL、公開情報）
  end note
}

|技術担当者|
if (侵害可能性あり?) then (○)

  partition "自動化対象③\n売上推定" #TECHNOLOGY {
    :被疑侵害製品の売上推定;
    note right
      **推定対象**
      ・被疑侵害企業
      ・製品名
      ・推定売上額
      ・収益見込みランク（A〜E）
    end note

    |ChatGPT (手動)|
    :売上・収益性分析を実行;
    :収益見込みレポートを生成;
  }
else (×)
  :DD管理シートに記録（×）;
  stop
endif

|技術担当者|
:DD管理シートに記録;
note right
  **記録内容**
  ・侵害可能性（○/×/△）
  ・侵害企業・製品候補
  ・収益見込み（A〜E）
  ・関連情報（ChatGPT URL等）
  ・無効可能性
  ・進捗・メモ
end note

|知財担当者|
:DD管理シートをレビュー;
:総合的に判断;
note right
  **判断基準**
  ・侵害可能性
  ・収益見込み
  ・無効リスク
  ・戦略的価値
end note

if (訴訟すべきか?) then (Yes)
  :訴訟準備開始;
  stop
else (No)
  :終了;
  stop
endif

@enduml

PlantUML version 1.2019.06(Sat May 25 02:10:25 JST 2019)
(GPL source distribution)
Java Runtime: OpenJDK Runtime Environment
JVM: OpenJDK 64-Bit Server VM
Java Version: 21.0.8+9-LTS
Operating System: Mac OS X
OS Version: 15.6.1
Default Encoding: UTF-8
Language: ja
Country: JP
--></g></svg>