<svg xmlns="http://www.w3.org/2000/svg" xmlns:xlink="http://www.w3.org/1999/xlink" contentStyleType="text/css" data-diagram-type="DESCRIPTION" height="506px" preserveAspectRatio="none" style="width:959px;height:506px;background:#FFFFFF;" version="1.1" viewBox="0 0 959 506" width="959px" zoomAndPan="magnify"><title>Phase 1 &#12450;&#12540;&#12461;&#12486;&#12463;&#12481;&#12515;</title><defs/><g><g class="title" data-source-line="4"><text fill="#000000" font-family="sans-serif" font-size="14" font-weight="bold" lengthAdjust="spacing" textLength="158.5938" x="393.2494" y="23.5352">Phase 1 &#12450;&#12540;&#12461;&#12486;&#12463;&#12481;&#12515;</text></g><!--cluster Vercel--><g class="cluster" data-entity="Vercel" data-source-line="8" data-uid="ent0003" id="cluster_Vercel"><rect fill="#E5F5FF" height="122.97" rx="2.5" ry="2.5" style="stroke:#181818;stroke-width:1;" width="100" x="280" y="241.2283"/><text fill="#000000" font-family="sans-serif" font-size="14" font-weight="bold" lengthAdjust="spacing" textLength="44.5566" x="307.7217" y="256.7634">Vercel</text></g><!--cluster OpenAI--><g class="cluster" data-entity="OpenAI" data-source-line="14" data-uid="ent0006" id="cluster_OpenAI"><path d="M627.5472,259.3895 C629.823,252.4741 635.6854,252.911 639.6737,257.5999 C641.8839,250.3028 648.2672,250.558 652.4267,255.5822 C655.3352,250.5923 659.1978,248.7748 663.3077,254.3442 C665.5737,248.1018 671.6002,245.5163 676.6649,251.2133 C679.1662,245.3752 684.345,244.4804 687.9052,250.1818 C690.9913,243.9201 697.2558,243.2378 701.2621,249.1742 C706.1559,243.9839 710.9086,243.7242 713.7964,251.1649 C717.2248,245.843 722.5554,245.0984 725.6869,251.4669 C731.519,245.3174 735.7203,246.413 739.2243,253.7959 C744.4579,248.8218 747.9117,250.2674 751.031,256.1047 C755.2386,250.9998 760.526,250.4724 763.331,257.5238 C771.5596,251.449 779.702,252.9096 781,264.4683 C782.6804,264.1604 783.2889,264.9665 782.9473,266.55 C790.0455,269.4686 789.7764,273.5612 785.226,278.6699 C792.7202,280.6928 792.7066,284.8881 788.8397,290.4086 C796.8666,292.2467 798.1185,298.481 792.0237,303.7016 C796.3991,307.9869 796.6541,314.5695 789.1903,316.1627 C795.0763,321.366 793.7686,327.5406 786.1209,329.6682 C790.0246,340.3871 785.568,347.4925 774,347.9583 C775.0854,347.8488 775.575,348.645 775.05,349.579 C771.5551,356.8149 766.5988,356.8751 762.1219,350.5126 C758.4816,355.7024 754.422,355.7962 750.2707,351.1268 C746.6806,356.9392 741.1593,357.3107 737.5501,351.1471 C734.5267,356.4518 730.0651,357.1182 726.6867,351.5001 C723.1414,359.6131 718.0742,358.5571 712.6713,353.4728 C710.076,358.918 704.8361,359.2919 701.3271,354.4836 C697.001,361.1921 692.2115,360.5422 688.5188,353.877 C683.5297,360.1659 679.6776,358.5884 675.4347,353.0514 C671.7701,358.5148 666.9465,358.1761 663.8822,352.4324 C659.2706,357.4888 653.493,357.6487 650.9945,350.2465 C646.6955,355.3872 642.323,354.6326 638.6973,349.445 C628.2247,355.0997 621.4283,353.9741 619,340.9583 C619.8217,340.6716 620.4659,341.1096 620.3447,342.0187 C613.2525,339.4251 612.5439,335.1893 618.1861,330.2584 C611.9523,327.9755 609.9748,322.2287 614.9269,317.162 C607.4606,316.0528 606.3007,309.8151 610.9275,304.795 C606.4418,298.5438 607.7352,293.9677 615.2228,291.6199 C610.5823,285.995 611.9222,281.9684 618.1755,278.8653 C610.289,268.0344 613.7795,260.9464 626,257.4683 C627.2699,257.4044 627.8595,258.1791 627.5472,259.3895" fill="#FFF5E5" style="stroke:#181818;stroke-width:1;"/><text fill="#000000" font-family="sans-serif" font-size="14" font-weight="bold" lengthAdjust="spacing" textLength="53.1494" x="673.4253" y="276.0034">OpenAI</text></g><!--cluster GitHub Actions--><g class="cluster" data-entity="GitHub Actions" data-source-line="18" data-uid="ent0008" id="cluster_GitHub Actions"><rect fill="#FFE5E5" height="122.98" rx="2.5" ry="2.5" style="stroke:#181818;stroke-width:1;" width="124" x="200" y="44.4883"/><text fill="#000000" font-family="sans-serif" font-size="14" font-weight="bold" lengthAdjust="spacing" textLength="108.7119" x="207.644" y="60.0234">GitHub Actions</text></g><!--entity NextJS--><g class="entity" data-entity="NextJS" data-source-line="9" data-uid="ent0004" id="entity_NextJS"><rect fill="#F1F1F1" height="52.9766" rx="2.5" ry="2.5" style="stroke:#181818;stroke-width:0.5;" width="67.79" x="296.1" y="295.2283"/><text fill="#000000" font-family="sans-serif" font-size="14" lengthAdjust="spacing" textLength="47.79" x="306.1" y="318.7634">Next.js</text><text fill="#000000" font-family="sans-serif" font-size="14" lengthAdjust="spacing" textLength="27.2822" x="306.1" y="335.2517">App</text></g><!--entity DeepResearch--><g class="entity" data-entity="DeepResearch" data-source-line="15" data-uid="ent0007" id="entity_DeepResearch"><rect fill="#F1F1F1" height="36.4883" rx="2.5" ry="2.5" style="stroke:#181818;stroke-width:0.5;" width="146.0957" x="626.95" y="303.4683"/><text fill="#000000" font-family="sans-serif" font-size="14" lengthAdjust="spacing" textLength="126.0957" x="636.95" y="327.0034">Deep Research API</text></g><!--entity Cron--><g class="entity" data-entity="Cron" data-source-line="19" data-uid="ent0009" id="entity_Cron"><rect fill="#F1F1F1" height="52.9766" rx="2.5" ry="2.5" style="stroke:#181818;stroke-width:0.5;" width="88.8105" x="217.59" y="98.4883"/><text fill="#000000" font-family="sans-serif" font-size="14" lengthAdjust="spacing" textLength="32.7031" x="227.59" y="122.0234">Cron</text><text fill="#000000" font-family="sans-serif" font-size="14" lengthAdjust="spacing" textLength="68.8105" x="227.59" y="138.5117">(15&#20998;&#12372;&#12392;)</text></g><!--entity User--><g class="entity" data-entity="User" data-source-line="6" data-uid="ent0002" id="entity_User"><ellipse cx="34" cy="95.2383" fill="#F1F1F1" rx="8" ry="8" style="stroke:#181818;stroke-width:0.5;"/><path d="M34,103.2383 L34,130.2383 M21,111.2383 L47,111.2383 M34,130.2383 L21,145.2383 M34,130.2383 L47,145.2383" fill="none" style="stroke:#181818;stroke-width:0.5;"/><text fill="#000000" font-family="sans-serif" font-size="14" lengthAdjust="spacing" textLength="56" x="6" y="160.2734">&#12518;&#12540;&#12470;&#12540;</text></g><!--entity DB--><g class="entity" data-entity="DB" data-source-line="12" data-uid="ent0005" id="entity_DB"><path d="M281.58,437.1983 C281.58,427.1983 330.0048,427.1983 330.0048,427.1983 C330.0048,427.1983 378.4296,427.1983 378.4296,437.1983 L378.4296,479.1748 C378.4296,489.1748 330.0048,489.1748 330.0048,489.1748 C330.0048,489.1748 281.58,489.1748 281.58,479.1748 L281.58,437.1983" fill="#E5FFE5" style="stroke:#181818;stroke-width:0.5;"/><path d="M281.58,437.1983 C281.58,447.1983 330.0048,447.1983 330.0048,447.1983 C330.0048,447.1983 378.4296,447.1983 378.4296,437.1983" fill="none" style="stroke:#181818;stroke-width:0.5;"/><text fill="#000000" font-family="sans-serif" font-size="14" lengthAdjust="spacing" textLength="64.251" x="291.58" y="464.7334">Supabase</text><text fill="#000000" font-family="sans-serif" font-size="14" lengthAdjust="spacing" textLength="76.8496" x="291.58" y="481.2217">PostgreSQL</text></g><g class="entity" data-entity="GMN16" data-source-line="29" data-uid="ent0017" id="entity_GMN16"><path d="M807.91,301.3983 L807.91,317.7183 L773.48,321.7183 L807.91,325.7183 L807.91,342.0194 A0,0 0 0 0 807.91,342.0194 L952.0926,342.0194 A0,0 0 0 0 952.0926,342.0194 L952.0926,311.3983 L942.0926,301.3983 L807.91,301.3983 A0,0 0 0 0 807.91,301.3983" fill="#FEFFDD" style="stroke:#181818;stroke-width:0.5;"/><path d="M942.0926,301.3983 L942.0926,311.3983 L952.0926,311.3983 L942.0926,301.3983" fill="#FEFFDD" style="stroke:#181818;stroke-width:0.5;"/><text fill="#000000" font-family="sans-serif" font-size="13" lengthAdjust="spacing" textLength="65" x="813.91" y="318.9666">&#38750;&#21516;&#26399;&#20966;&#29702;</text><text fill="#000000" font-family="sans-serif" font-size="13" lengthAdjust="spacing" textLength="123.1826" x="813.91" y="334.2772">Webhook&#12391;&#23436;&#20102;&#36890;&#30693;</text></g><g class="entity" data-entity="GMN19" data-source-line="34" data-uid="ent0020" id="entity_GMN19"><path d="M399.28,301.3983 L399.28,342.0194 L514.7204,342.0194 L514.7204,311.3983 L504.7204,301.3983 L399.28,301.3983" fill="#FEFFDD" style="stroke:#181818;stroke-width:0.5;"/><path d="M504.7204,301.3983 L504.7204,311.3983 L514.7204,311.3983 L504.7204,301.3983" fill="#FEFFDD" style="stroke:#181818;stroke-width:1;"/><text fill="#000000" font-family="sans-serif" font-size="13" lengthAdjust="spacing" textLength="94.4404" x="405.28" y="318.9666">15&#20998;&#12372;&#12392;&#12395;&#23455;&#34892;</text><text fill="#000000" font-family="sans-serif" font-size="13" lengthAdjust="spacing" textLength="91" x="405.28" y="334.2772">&#12496;&#12483;&#12481;&#20966;&#29702;&#21046;&#24481;</text></g><!--link User to NextJS--><g class="link" data-entity-1="User" data-entity-2="NextJS" data-source-line="22" data-uid="lnk10" id="link_User_NextJS"><path d="M35.06,163.4883 C37.52,183.9983 43.79,208.5483 59,225.2283 C122.03,294.3383 232.125,312.8807 289.735,318.1607" fill="none" id="User-to-NextJS" style="stroke:#181818;stroke-width:1;"/><polygon fill="#181818" points="295.71,318.7083,287.1126,313.9036,290.7309,318.2519,286.3825,321.8702,295.71,318.7083" style="stroke:#181818;stroke-width:1;"/><text fill="#000000" font-family="sans-serif" font-size="13" lengthAdjust="spacing" textLength="107.4468" x="60" y="214.2966">1. &#20998;&#26512;&#12522;&#12463;&#12456;&#12473;&#12488;</text></g><!--link NextJS to DB--><g class="link" data-entity-1="NextJS" data-entity-2="DB" data-source-line="23" data-uid="lnk11" id="link_NextJS_DB"><path d="M330,348.6383 C330,371.0783 330,397.5383 330,421.1183" fill="none" id="NextJS-to-DB" style="stroke:#181818;stroke-width:1;"/><polygon fill="#181818" points="330,427.1183,334,418.1183,330,422.1183,326,418.1183,330,427.1183" style="stroke:#181818;stroke-width:1;"/><text fill="#000000" font-family="sans-serif" font-size="13" lengthAdjust="spacing" textLength="120.4468" x="331" y="393.7666">2. &#12472;&#12519;&#12502;&#20316;&#25104;&#12539;&#26356;&#26032;</text></g><!--link NextJS to DeepResearch--><g class="link" data-entity-1="NextJS" data-entity-2="DeepResearch" data-source-line="24" data-uid="lnk12" id="link_NextJS_DeepResearch"><path d="M338.33,295.0383 C346.18,274.6083 360.07,247.5583 382,233.2283 C427.56,203.4383 578.13,193.3383 626.5,218.3083 C661.14,236.1883 680.7203,273.2365 690.9203,297.8165" fill="none" id="NextJS-to-DeepResearch" style="stroke:#181818;stroke-width:1;"/><polygon fill="#181818" points="693.22,303.3583,693.465,293.5125,691.3036,298.7401,686.0759,296.5787,693.22,303.3583" style="stroke:#181818;stroke-width:1;"/><text fill="#000000" font-family="sans-serif" font-size="13" lengthAdjust="spacing" textLength="109.5225" x="512.499" y="206.7966">3. Deep Research</text><text fill="#000000" font-family="sans-serif" font-size="13" lengthAdjust="spacing" textLength="117.5205" x="508.5" y="222.1072">(background: true)</text></g><!--reverse link NextJS to DeepResearch--><g class="link" data-entity-1="NextJS" data-entity-2="DeepResearch" data-source-line="25" data-uid="lnk14" id="link_NextJS_DeepResearch"><path d="M340.482,289.4375 C348.332,269.0075 360.07,247.5583 382,233.2283 C427.56,203.4383 578.13,193.3383 626.5,218.3083 C661.14,236.1883 683.02,278.7783 693.22,303.3583" fill="none" id="NextJS-backto-DeepResearch" style="stroke:#181818;stroke-width:1;"/><polygon fill="#181818" points="338.33,295.0383,345.2919,288.0718,340.1234,290.371,337.8242,285.2024,338.33,295.0383" style="stroke:#181818;stroke-width:1;"/><text fill="#000000" font-family="sans-serif" font-size="13" lengthAdjust="spacing" textLength="74.6294" x="529.7417" y="206.7966">4. Webhook</text><text fill="#000000" font-family="sans-serif" font-size="13" lengthAdjust="spacing" textLength="136.1128" x="499" y="222.1072">(response.completed)</text></g><!--link Cron to NextJS--><g class="link" data-entity-1="Cron" data-entity-2="NextJS" data-source-line="26" data-uid="lnk15" id="link_Cron_NextJS"><path d="M217.19,151.9483 C190.7,170.8783 165,197.8883 180,225.2283 C204.51,269.8783 254.1129,294.5561 290.2729,307.9361" fill="none" id="Cron-to-NextJS" style="stroke:#181818;stroke-width:1;"/><polygon fill="#181818" points="295.9,310.0183,288.8474,303.1436,291.2107,308.2831,286.0712,310.6465,295.9,310.0183" style="stroke:#181818;stroke-width:1;"/><text fill="#000000" font-family="sans-serif" font-size="13" lengthAdjust="spacing" textLength="133.4468" x="181" y="206.7966">5. &#23450;&#26399;&#12473;&#12486;&#12540;&#12479;&#12473;&#30906;&#35469;</text><text fill="#000000" font-family="sans-serif" font-size="13" lengthAdjust="spacing" textLength="91" x="202.2234" y="222.1072">&#26032;&#35215;&#12472;&#12519;&#12502;&#38283;&#22987;</text></g><!--link Cron to GMN19--><g class="link" data-entity-1="Cron" data-entity-2="GMN19" data-source-line="34" data-uid="lnk21" id="link_Cron_GMN19"><path d="M283.66,151.6683 C302.87,173.2983 332.54,204.0183 363,225.2283 C369.85,229.9983 373.32,228.2083 380,233.2283 C405.88,252.6783 429.49,281.9883 443.56,301.2383" fill="none" id="Cron-GMN19" style="stroke:#181818;stroke-width:1;stroke-dasharray:7,7;"/></g><!--SRC=[RPBFRn915CVlyrUyR2zoO1FKlN0mmHQqnYXAr0kNPNSAo3ApcHsYnfW8co19CN8m76ejQOtGr8WUJAFrrnypNNxy5yvCAJ_KFMmcttdlC-_xtWigPUBRpAv2mNOgHKPhn5sd7cMmbj4V2kOH3gtwb632S_o9Xu5XXzkaw664U9bB8Lko0mm948q34VuGZOyYR8h69n7MHVWE8TlX4ck8iAzlZ-NV03k0Um5c2CrfODp7pC6U0MjfAsDbCl0KmU9jC6xXnzny6EH9olSrG0atSkWPGgxDxO8gmiZLV7tAaomDU97Xt9sREdZZgkPcqXP2ZaThBXYtVKnIcuPsRAMjlz_RmDY7kpZ0DdDAaCfkdd6aUYwgfvVglrRcrsi5I3cyJ4cWkUd_SDSP9Nbo8M55hQQelnRrmvWcArqHLLyWxj9797vbvX6Ia311ne_sEY8yKirj78h6Dn6sq2pYF47wJC95KmxZgmW78koU_jmTjMJMzz6RBwFkvtayAnTBN2Ki6PAfbqnOCIuhNMn84ZYhuHXQoObxU8ilbthPX0UuKAAq8fCP3gJn09kg0nxcs8qXvVHVXvPqEDmPxVQqiQPUbj_oF3uucHozp1DP_AJ_QkvhsjsE1ji84ShbJYepGBTMnmCmVRiNTTgI6RteZpjDgSmg4_L1D6oVdZIdptV6lVS84nSKQSOhKCvfLG7rL02MfYNg7w9XRxBVbh88PMT3kUbd_AXr7FtQNy3-0000]--></g></svg>