<?xml version="1.0" encoding="UTF-8" standalone="no"?><svg xmlns="http://www.w3.org/2000/svg" xmlns:xlink="http://www.w3.org/1999/xlink" contentScriptType="application/ecmascript" contentStyleType="text/css" height="905px" preserveAspectRatio="none" style="width:456px;height:905px;" version="1.1" viewBox="0 0 456 905" width="456px" zoomAndPan="magnify"><defs><filter height="300%" id="f1acjpjw6azzl7" width="300%" x="-1" y="-1"><feGaussianBlur result="blurOut" stdDeviation="2.0"/><feColorMatrix in="blurOut" result="blurOut2" type="matrix" values="0 0 0 0 0 0 0 0 0 0 0 0 0 0 0 0 0 0 .4 0"/><feOffset dx="4.0" dy="4.0" in="blurOut2" result="blurOut3"/><feBlend in="SourceGraphic" in2="blurOut3" mode="normal"/></filter></defs><g><!--class input--><rect fill="#FEFECE" filter="url(#f1acjpjw6azzl7)" height="73.9102" id="input" style="stroke: #A80036; stroke-width: 1.5;" width="116" x="160" y="7.68"/><ellipse cx="175" cy="23.68" fill="#ADD1B2" rx="11" ry="11" style="stroke: #A80036; stroke-width: 1.0;"/><path d="M177.4731,29.8231 Q176.8921,30.1219 176.2529,30.2713 Q175.6138,30.4207 174.9082,30.4207 Q172.4014,30.4207 171.0815,28.7689 Q169.7617,27.117 169.7617,23.9959 Q169.7617,20.8665 171.0815,19.2147 Q172.4014,17.5628 174.9082,17.5628 Q175.6138,17.5628 176.2612,17.7122 Q176.9087,17.8616 177.4731,18.1605 L177.4731,20.8831 Q176.8423,20.3021 176.2488,20.0323 Q175.6553,19.7625 175.0244,19.7625 Q173.6797,19.7625 172.9949,20.8292 Q172.3101,21.8958 172.3101,23.9959 Q172.3101,26.0877 172.9949,27.1544 Q173.6797,28.221 175.0244,28.221 Q175.6553,28.221 176.2488,27.9512 Q176.8423,27.6815 177.4731,27.1004 Z "/><text fill="#000000" font-family="sans-serif" font-size="12" lengthAdjust="spacingAndGlyphs" textLength="84" x="189" y="28.2152">特許権者リスト</text><line style="stroke: #A80036; stroke-width: 1.5;" x1="161" x2="275" y1="39.68" y2="39.68"/><ellipse cx="171" cy="51.6575" fill="none" rx="3" ry="3" style="stroke: #038048; stroke-width: 1.0;"/><text fill="#000000" font-family="sans-serif" font-size="11" lengthAdjust="spacingAndGlyphs" textLength="55" x="180" y="54.3148">特許権者名</text><ellipse cx="171" cy="64.6126" fill="none" rx="3" ry="3" style="stroke: #038048; stroke-width: 1.0;"/><text fill="#000000" font-family="sans-serif" font-size="11" lengthAdjust="spacingAndGlyphs" textLength="44" x="180" y="67.2698">対象期間</text><line style="stroke: #A80036; stroke-width: 1.5;" x1="161" x2="275" y1="73.5902" y2="73.5902"/><!--class patentdb--><rect fill="#FEFECE" filter="url(#f1acjpjw6azzl7)" height="119.041" id="patentdb" style="stroke: #A80036; stroke-width: 1.5;" width="103" x="166.5" y="173.59"/><ellipse cx="184.65" cy="192.7228" fill="#ADD1B2" rx="11" ry="11" style="stroke: #A80036; stroke-width: 1.0;"/><path d="M187.1231,198.8659 Q186.5421,199.1647 185.9029,199.3141 Q185.2638,199.4635 184.5582,199.4635 Q182.0514,199.4635 180.7315,197.8117 Q179.4117,196.1598 179.4117,193.0387 Q179.4117,189.9093 180.7315,188.2575 Q182.0514,186.6056 184.5582,186.6056 Q185.2638,186.6056 185.9112,186.755 Q186.5587,186.9045 187.1231,187.2033 L187.1231,189.9259 Q186.4923,189.3449 185.8988,189.0751 Q185.3053,188.8053 184.6744,188.8053 Q183.3297,188.8053 182.6449,189.872 Q181.9601,190.9386 181.9601,193.0387 Q181.9601,195.1305 182.6449,196.1972 Q183.3297,197.2638 184.6744,197.2638 Q185.3053,197.2638 185.8988,196.9941 Q186.4923,196.7243 187.1231,196.1432 Z "/><text fill="#000000" font-family="sans-serif" font-size="12" lengthAdjust="spacingAndGlyphs" textLength="48" x="207.35" y="190.1916">特許情報</text><text fill="#000000" font-family="sans-serif" font-size="12" lengthAdjust="spacingAndGlyphs" textLength="64" x="199.35" y="204.3244">(Supabase)</text><line style="stroke: #A80036; stroke-width: 1.5;" x1="167.5" x2="268.5" y1="211.8556" y2="211.8556"/><ellipse cx="177.5" cy="223.8332" fill="none" rx="3" ry="3" style="stroke: #038048; stroke-width: 1.0;"/><text fill="#000000" font-family="sans-serif" font-size="11" lengthAdjust="spacingAndGlyphs" textLength="44" x="186.5" y="226.4904">特許番号</text><ellipse cx="177.5" cy="236.7882" fill="none" rx="3" ry="3" style="stroke: #038048; stroke-width: 1.0;"/><text fill="#000000" font-family="sans-serif" font-size="11" lengthAdjust="spacingAndGlyphs" textLength="33" x="186.5" y="239.4455">請求項</text><ellipse cx="177.5" cy="249.7433" fill="none" rx="3" ry="3" style="stroke: #038048; stroke-width: 1.0;"/><text fill="#000000" font-family="sans-serif" font-size="11" lengthAdjust="spacingAndGlyphs" textLength="55" x="186.5" y="252.4005">発明の内容</text><ellipse cx="177.5" cy="262.6984" fill="none" rx="3" ry="3" style="stroke: #038048; stroke-width: 1.0;"/><text fill="#000000" font-family="sans-serif" font-size="11" lengthAdjust="spacingAndGlyphs" textLength="44" x="186.5" y="265.3556">特許概要</text><ellipse cx="177.5" cy="275.6535" fill="none" rx="3" ry="3" style="stroke: #038048; stroke-width: 1.0;"/><text fill="#000000" font-family="sans-serif" font-size="11" lengthAdjust="spacingAndGlyphs" textLength="77" x="186.5" y="278.3107">特許公報リンク</text><line style="stroke: #A80036; stroke-width: 1.5;" x1="167.5" x2="268.5" y1="284.631" y2="284.631"/><!--class analysis--><rect fill="#FEFECE" filter="url(#f1acjpjw6azzl7)" height="99.8203" id="analysis" style="stroke: #A80036; stroke-width: 1.5;" width="128" x="154" y="384.63"/><ellipse cx="169" cy="400.63" fill="#ADD1B2" rx="11" ry="11" style="stroke: #A80036; stroke-width: 1.0;"/><path d="M171.4731,406.7731 Q170.8921,407.0719 170.2529,407.2213 Q169.6138,407.3707 168.9082,407.3707 Q166.4014,407.3707 165.0815,405.7189 Q163.7617,404.067 163.7617,400.9459 Q163.7617,397.8165 165.0815,396.1647 Q166.4014,394.5128 168.9082,394.5128 Q169.6138,394.5128 170.2612,394.6622 Q170.9087,394.8116 171.4731,395.1105 L171.4731,397.8331 Q170.8423,397.2521 170.2488,396.9823 Q169.6553,396.7125 169.0244,396.7125 Q167.6797,396.7125 166.9949,397.7792 Q166.3101,398.8458 166.3101,400.9459 Q166.3101,403.0377 166.9949,404.1044 Q167.6797,405.171 169.0244,405.171 Q169.6553,405.171 170.2488,404.9012 Q170.8423,404.6315 171.4731,404.0504 Z "/><text fill="#000000" font-family="sans-serif" font-size="12" lengthAdjust="spacingAndGlyphs" textLength="96" x="183" y="405.1652">侵害分析エンジン</text><line style="stroke: #A80036; stroke-width: 1.5;" x1="155" x2="281" y1="416.63" y2="416.63"/><ellipse cx="165" cy="428.6075" fill="none" rx="3" ry="3" style="stroke: #038048; stroke-width: 1.0;"/><text fill="#000000" font-family="sans-serif" font-size="11" lengthAdjust="spacingAndGlyphs" textLength="66" x="174" y="431.2648">構成要件抽出</text><ellipse cx="165" cy="441.5626" fill="none" rx="3" ry="3" style="stroke: #038048; stroke-width: 1.0;"/><text fill="#000000" font-family="sans-serif" font-size="11" lengthAdjust="spacingAndGlyphs" textLength="77" x="174" y="444.2198">製品マッチング</text><ellipse cx="165" cy="454.5177" fill="none" rx="3" ry="3" style="stroke: #038048; stroke-width: 1.0;"/><text fill="#000000" font-family="sans-serif" font-size="11" lengthAdjust="spacingAndGlyphs" textLength="55" x="174" y="457.1749">充足性判定</text><ellipse cx="165" cy="467.4728" fill="none" rx="3" ry="3" style="stroke: #038048; stroke-width: 1.0;"/><text fill="#000000" font-family="sans-serif" font-size="11" lengthAdjust="spacingAndGlyphs" textLength="65" x="174" y="470.13">根拠URL収集</text><line style="stroke: #A80036; stroke-width: 1.5;" x1="155" x2="281" y1="476.4503" y2="476.4503"/><!--class revenue--><rect fill="#FEFECE" filter="url(#f1acjpjw6azzl7)" height="99.8203" id="revenue" style="stroke: #A80036; stroke-width: 1.5;" width="128" x="20" y="576.45"/><ellipse cx="35" cy="592.45" fill="#ADD1B2" rx="11" ry="11" style="stroke: #A80036; stroke-width: 1.0;"/><path d="M37.4731,598.5931 Q36.8921,598.8919 36.2529,599.0413 Q35.6138,599.1907 34.9082,599.1907 Q32.4014,599.1907 31.0815,597.5389 Q29.7617,595.887 29.7617,592.7659 Q29.7617,589.6365 31.0815,587.9847 Q32.4014,586.3328 34.9082,586.3328 Q35.6138,586.3328 36.2612,586.4822 Q36.9087,586.6316 37.4731,586.9305 L37.4731,589.6531 Q36.8423,589.0721 36.2488,588.8023 Q35.6553,588.5325 35.0244,588.5325 Q33.6797,588.5325 32.9949,589.5992 Q32.3101,590.6658 32.3101,592.7659 Q32.3101,594.8577 32.9949,595.9244 Q33.6797,596.991 35.0244,596.991 Q35.6553,596.991 36.2488,596.7212 Q36.8423,596.4515 37.4731,595.8704 Z "/><text fill="#000000" font-family="sans-serif" font-size="12" lengthAdjust="spacingAndGlyphs" textLength="96" x="49" y="596.9852">売上推定エンジン</text><line style="stroke: #A80036; stroke-width: 1.5;" x1="21" x2="147" y1="608.45" y2="608.45"/><ellipse cx="31" cy="620.4275" fill="none" rx="3" ry="3" style="stroke: #038048; stroke-width: 1.0;"/><text fill="#000000" font-family="sans-serif" font-size="11" lengthAdjust="spacingAndGlyphs" textLength="66" x="40" y="623.0848">企業情報収集</text><ellipse cx="31" cy="633.3826" fill="none" rx="3" ry="3" style="stroke: #038048; stroke-width: 1.0;"/><text fill="#000000" font-family="sans-serif" font-size="11" lengthAdjust="spacingAndGlyphs" textLength="44" x="40" y="636.0398">製品特定</text><ellipse cx="31" cy="646.3377" fill="none" rx="3" ry="3" style="stroke: #038048; stroke-width: 1.0;"/><text fill="#000000" font-family="sans-serif" font-size="11" lengthAdjust="spacingAndGlyphs" textLength="44" x="40" y="648.9949">売上推定</text><ellipse cx="31" cy="659.2928" fill="none" rx="3" ry="3" style="stroke: #038048; stroke-width: 1.0;"/><text fill="#000000" font-family="sans-serif" font-size="11" lengthAdjust="spacingAndGlyphs" textLength="88" x="40" y="661.95">収益性ランク付け</text><line style="stroke: #A80036; stroke-width: 1.5;" x1="21" x2="147" y1="668.2703" y2="668.2703"/><!--class output--><rect fill="#FEFECE" filter="url(#f1acjpjw6azzl7)" height="125.7305" id="output" style="stroke: #A80036; stroke-width: 1.5;" width="110" x="96" y="768.27"/><ellipse cx="111" cy="784.27" fill="#ADD1B2" rx="11" ry="11" style="stroke: #A80036; stroke-width: 1.0;"/><path d="M113.4731,790.4131 Q112.8921,790.7119 112.2529,790.8613 Q111.6138,791.0107 110.9082,791.0107 Q108.4014,791.0107 107.0815,789.3589 Q105.7617,787.707 105.7617,784.5859 Q105.7617,781.4565 107.0815,779.8047 Q108.4014,778.1528 110.9082,778.1528 Q111.6138,778.1528 112.2612,778.3022 Q112.9087,778.4516 113.4731,778.7505 L113.4731,781.4731 Q112.8423,780.8921 112.2488,780.6223 Q111.6553,780.3525 111.0244,780.3525 Q109.6797,780.3525 108.9949,781.4192 Q108.3101,782.4858 108.3101,784.5859 Q108.3101,786.6777 108.9949,787.7444 Q109.6797,788.811 111.0244,788.811 Q111.6553,788.811 112.2488,788.5412 Q112.8423,788.2715 113.4731,787.6904 Z "/><text fill="#000000" font-family="sans-serif" font-size="12" lengthAdjust="spacingAndGlyphs" textLength="78" x="125" y="788.8052">DD管理シート</text><line style="stroke: #A80036; stroke-width: 1.5;" x1="97" x2="205" y1="800.27" y2="800.27"/><ellipse cx="107" cy="812.2475" fill="none" rx="3" ry="3" style="stroke: #038048; stroke-width: 1.0;"/><text fill="#000000" font-family="sans-serif" font-size="11" lengthAdjust="spacingAndGlyphs" textLength="44" x="116" y="814.9048">特許番号</text><ellipse cx="107" cy="825.2026" fill="none" rx="3" ry="3" style="stroke: #038048; stroke-width: 1.0;"/><text fill="#000000" font-family="sans-serif" font-size="11" lengthAdjust="spacingAndGlyphs" textLength="55" x="116" y="827.8598">侵害可能性</text><ellipse cx="107" cy="838.1577" fill="none" rx="3" ry="3" style="stroke: #038048; stroke-width: 1.0;"/><text fill="#000000" font-family="sans-serif" font-size="11" lengthAdjust="spacingAndGlyphs" textLength="77" x="116" y="840.8149">侵害企業・製品</text><ellipse cx="107" cy="851.1128" fill="none" rx="3" ry="3" style="stroke: #038048; stroke-width: 1.0;"/><text fill="#000000" font-family="sans-serif" font-size="11" lengthAdjust="spacingAndGlyphs" textLength="55" x="116" y="853.77">収益見込み</text><ellipse cx="107" cy="864.0679" fill="none" rx="3" ry="3" style="stroke: #038048; stroke-width: 1.0;"/><text fill="#000000" font-family="sans-serif" font-size="11" lengthAdjust="spacingAndGlyphs" textLength="44" x="116" y="866.7251">分析根拠</text><ellipse cx="107" cy="877.0229" fill="none" rx="3" ry="3" style="stroke: #038048; stroke-width: 1.0;"/><text fill="#000000" font-family="sans-serif" font-size="11" lengthAdjust="spacingAndGlyphs" textLength="55" x="116" y="879.6802">ステータス</text><line style="stroke: #A80036; stroke-width: 1.5;" x1="97" x2="205" y1="886.0005" y2="886.0005"/><!--class web--><rect fill="#FEFECE" filter="url(#f1acjpjw6azzl7)" height="112.7754" id="web" style="stroke: #A80036; stroke-width: 1.5;" width="114" x="6" y="176.72"/><ellipse cx="30.45" cy="192.72" fill="#ADD1B2" rx="11" ry="11" style="stroke: #A80036; stroke-width: 1.0;"/><path d="M32.9231,198.8631 Q32.3421,199.1619 31.7029,199.3113 Q31.0638,199.4607 30.3582,199.4607 Q27.8514,199.4607 26.5315,197.8089 Q25.2117,196.157 25.2117,193.0359 Q25.2117,189.9065 26.5315,188.2547 Q27.8514,186.6028 30.3582,186.6028 Q31.0638,186.6028 31.7112,186.7522 Q32.3587,186.9016 32.9231,187.2005 L32.9231,189.9231 Q32.2923,189.3421 31.6988,189.0723 Q31.1053,188.8025 30.4744,188.8025 Q29.1297,188.8025 28.4449,189.8692 Q27.7601,190.9358 27.7601,193.0359 Q27.7601,195.1277 28.4449,196.1944 Q29.1297,197.261 30.4744,197.261 Q31.1053,197.261 31.6988,196.9912 Q32.2923,196.7215 32.9231,196.1404 Z "/><text fill="#000000" font-family="sans-serif" font-size="12" lengthAdjust="spacingAndGlyphs" textLength="61" x="46.55" y="197.2552">Web情報源</text><line style="stroke: #A80036; stroke-width: 1.5;" x1="7" x2="119" y1="208.72" y2="208.72"/><ellipse cx="17" cy="220.6975" fill="none" rx="3" ry="3" style="stroke: #038048; stroke-width: 1.0;"/><text fill="#000000" font-family="sans-serif" font-size="11" lengthAdjust="spacingAndGlyphs" textLength="77" x="26" y="223.3548">企業公式サイト</text><ellipse cx="17" cy="233.6526" fill="none" rx="3" ry="3" style="stroke: #038048; stroke-width: 1.0;"/><text fill="#000000" font-family="sans-serif" font-size="11" lengthAdjust="spacingAndGlyphs" textLength="77" x="26" y="236.3098">製品仕様ページ</text><ellipse cx="17" cy="246.6077" fill="none" rx="3" ry="3" style="stroke: #038048; stroke-width: 1.0;"/><text fill="#000000" font-family="sans-serif" font-size="11" lengthAdjust="spacingAndGlyphs" textLength="77" x="26" y="249.2649">プレスリリース</text><ellipse cx="17" cy="259.5628" fill="none" rx="3" ry="3" style="stroke: #038048; stroke-width: 1.0;"/><text fill="#000000" font-family="sans-serif" font-size="11" lengthAdjust="spacingAndGlyphs" textLength="44" x="26" y="262.22">財務情報</text><ellipse cx="17" cy="272.5179" fill="none" rx="3" ry="3" style="stroke: #038048; stroke-width: 1.0;"/><text fill="#000000" font-family="sans-serif" font-size="11" lengthAdjust="spacingAndGlyphs" textLength="88" x="26" y="275.1751">市場調査レポート</text><line style="stroke: #A80036; stroke-width: 1.5;" x1="7" x2="119" y1="281.4954" y2="281.4954"/><path d="M317.5,406.57 L317.5,430.54 L282.23,434.54 L317.5,438.54 L317.5,462.5016 A0,0 0 0 0 317.5,462.5016 L442.5,462.5016 A0,0 0 0 0 442.5,462.5016 L442.5,416.57 L432.5,406.57 L317.5,406.57 A0,0 0 0 0 317.5,406.57 " fill="#FBFB77" filter="url(#f1acjpjw6azzl7)" style="stroke: #A80036; stroke-width: 1.0;"/><path d="M432.5,406.57 L432.5,416.57 L442.5,416.57 L432.5,406.57 " fill="#FBFB77" style="stroke: #A80036; stroke-width: 1.0;"/><text fill="#000000" font-family="sans-serif" font-size="13" font-weight="bold" lengthAdjust="spacingAndGlyphs" textLength="72" x="323.5" y="424.1384">AI Agent 1</text><text fill="#000000" font-family="sans-serif" font-size="13" lengthAdjust="spacingAndGlyphs" textLength="104" x="323.5" y="439.4489">構成要件ベースの</text><text fill="#000000" font-family="sans-serif" font-size="13" lengthAdjust="spacingAndGlyphs" textLength="91" x="323.5" y="454.7595">自動マッチング</text><path d="M319.5,598.39 L319.5,654.3216 L444.5,654.3216 L444.5,608.39 L434.5,598.39 L319.5,598.39 " fill="#FBFB77" filter="url(#f1acjpjw6azzl7)" style="stroke: #A80036; stroke-width: 1.0;"/><path d="M434.5,598.39 L434.5,608.39 L444.5,608.39 L434.5,598.39 " fill="#FBFB77" style="stroke: #A80036; stroke-width: 1.0;"/><text fill="#000000" font-family="sans-serif" font-size="13" font-weight="bold" lengthAdjust="spacingAndGlyphs" textLength="72" x="325.5" y="615.9584">AI Agent 2</text><text fill="#000000" font-family="sans-serif" font-size="13" lengthAdjust="spacingAndGlyphs" textLength="104" x="325.5" y="631.2689">財務情報ベースの</text><text fill="#000000" font-family="sans-serif" font-size="13" lengthAdjust="spacingAndGlyphs" textLength="65" x="325.5" y="646.5795">収益性分析</text><!--link input to patentdb--><path d="M218,82.03 C218,106.17 218,138.54 218,167.03 " fill="none" id="input-patentdb" style="stroke: #A80036; stroke-width: 1.0;"/><polygon fill="#A80036" points="218,171.91,222,162.91,218,166.91,214,162.91,218,171.91" style="stroke: #A80036; stroke-width: 1.0;"/><text fill="#000000" font-family="sans-serif" font-size="13" lengthAdjust="spacingAndGlyphs" textLength="52" x="219" y="125.1584">特許情報</text><text fill="#000000" font-family="sans-serif" font-size="13" lengthAdjust="spacingAndGlyphs" textLength="26" x="232" y="140.4689">取得</text><!--link patentdb to analysis--><path d="M218,292.87 C218,319.78 218,351.51 218,378.01 " fill="none" id="patentdb-analysis" style="stroke: #A80036; stroke-width: 1.0;"/><polygon fill="#A80036" points="218,382.77,222,373.77,218,377.77,214,373.77,218,382.77" style="stroke: #A80036; stroke-width: 1.0;"/><text fill="#000000" font-family="sans-serif" font-size="13" lengthAdjust="spacingAndGlyphs" textLength="39" x="219" y="336.1984">請求項</text><text fill="#000000" font-family="sans-serif" font-size="13" lengthAdjust="spacingAndGlyphs" textLength="26" x="225.5" y="351.5089">抽出</text><!--link web to analysis--><path d="M105.96,289.99 C121.67,310.37 139.6,333.57 156,354.63 C162.2,362.6 168.78,371 175.24,379.24 " fill="none" id="web-analysis" style="stroke: #A80036; stroke-width: 1.0;"/><polygon fill="#A80036" points="178.3,383.15,175.8864,373.6015,175.2115,379.2179,169.5951,378.543,178.3,383.15" style="stroke: #A80036; stroke-width: 1.0;"/><text fill="#000000" font-family="sans-serif" font-size="13" lengthAdjust="spacingAndGlyphs" textLength="52" x="157" y="336.1984">製品情報</text><text fill="#000000" font-family="sans-serif" font-size="13" lengthAdjust="spacingAndGlyphs" textLength="26" x="170" y="351.5089">収集</text><!--link analysis to revenue--><path d="M153.6,482.5 C143.08,492.21 133.01,503 125,514.45 C113.32,531.14 104.53,551.56 98.15,570.3 " fill="none" id="analysis-revenue" style="stroke: #A80036; stroke-width: 1.0;"/><polygon fill="#A80036" points="96.73,574.62,103.3313,567.3109,98.2854,569.8681,95.7282,564.8222,96.73,574.62" style="stroke: #A80036; stroke-width: 1.0;"/><text fill="#000000" font-family="sans-serif" font-size="13" lengthAdjust="spacingAndGlyphs" textLength="65" x="126" y="528.0184">侵害可能性</text><text fill="#000000" font-family="sans-serif" font-size="13" lengthAdjust="spacingAndGlyphs" textLength="26" x="145.5" y="543.3289">あり</text><!--link web to revenue--><path d="M63.03,289.85 C63.36,340.62 64.65,417.64 69,484.45 C70.83,512.63 74.04,543.86 77.02,569.75 " fill="none" id="web-revenue" style="stroke: #A80036; stroke-width: 1.0;"/><polygon fill="#A80036" points="77.59,574.71,80.533,565.3111,77.0174,569.7429,72.5857,566.2273,77.59,574.71" style="stroke: #A80036; stroke-width: 1.0;"/><text fill="#000000" font-family="sans-serif" font-size="13" lengthAdjust="spacingAndGlyphs" textLength="65" x="70" y="432.1084">企業・財務</text><text fill="#000000" font-family="sans-serif" font-size="13" lengthAdjust="spacingAndGlyphs" textLength="52" x="76.5" y="447.4189">情報収集</text><!--link revenue to output--><path d="M100.3,676.7 C108.77,702.31 119.24,734 128.46,761.92 " fill="none" id="revenue-output" style="stroke: #A80036; stroke-width: 1.0;"/><polygon fill="#A80036" points="129.93,766.38,130.9052,756.5795,128.3617,761.6323,123.3089,759.0888,129.93,766.38" style="stroke: #A80036; stroke-width: 1.0;"/><text fill="#000000" font-family="sans-serif" font-size="13" lengthAdjust="spacingAndGlyphs" textLength="52" x="120.51" y="719.8384">分析結果</text><text fill="#000000" font-family="sans-serif" font-size="13" lengthAdjust="spacingAndGlyphs" textLength="26" x="133.51" y="735.1489">統合</text><!--link analysis to output--><path d="M215.28,484.83 C211.24,545.18 201.86,650.24 182,738.27 C180.26,745.99 178.11,753.97 175.77,761.86 " fill="none" id="analysis-output" style="stroke: #A80036; stroke-width: 1.0;"/><polygon fill="#A80036" points="174.38,766.42,180.828,758.9753,175.8364,761.6368,173.1749,756.6451,174.38,766.42" style="stroke: #A80036; stroke-width: 1.0;"/><text fill="#000000" font-family="sans-serif" font-size="13" lengthAdjust="spacingAndGlyphs" textLength="65" x="208.09" y="623.9284">侵害可能性</text><text fill="#000000" font-family="sans-serif" font-size="13" lengthAdjust="spacingAndGlyphs" textLength="26" x="227.59" y="639.2389">なし</text><!--link revenue to GMN18--><path d="M126.17,576.14 C144.48,558.12 167.46,539.93 192.5,530.45 C227,517.39 241.06,517.23 275.5,530.45 C310.58,543.92 341.33,574.86 360.65,597.99 " fill="none" id="revenue-GMN18" style="stroke: #A80036; stroke-width: 1.0; stroke-dasharray: 7.0,7.0;"/><!--
@startuml
skinparam backgroundColor #FFFFFF


class "特許権者リスト" as input {
  + 特許権者名
  + 対象期間
}

class "特許情報\n(Supabase)" as patentdb {
  + 特許番号
  + 請求項
  + 発明の内容
  + 特許概要
  + 特許公報リンク
}

class "侵害分析エンジン" as analysis {
  + 構成要件抽出
  + 製品マッチング
  + 充足性判定
  + 根拠URL収集
}

class "売上推定エンジン" as revenue {
  + 企業情報収集
  + 製品特定
  + 売上推定
  + 収益性ランク付け
}

class "DD管理シート" as output {
  + 特許番号
  + 侵害可能性
  + 侵害企業・製品
  + 収益見込み
  + 分析根拠
  + ステータス
}

class "Web情報源" as web {
  + 企業公式サイト
  + 製品仕様ページ
  + プレスリリース
  + 財務情報
  + 市場調査レポート
}

input - -> patentdb : 特許情報\n取得
patentdb - -> analysis : 請求項\n抽出
web - -> analysis : 製品情報\n収集
analysis - -> revenue : 侵害可能性\nあり
web - -> revenue : 企業・財務\n情報収集
revenue - -> output : 分析結果\n統合
analysis - -> output : 侵害可能性\nなし

note right of analysis
  **AI Agent 1**
  構成要件ベースの
  自動マッチング
end note

note right of revenue
  **AI Agent 2**
  財務情報ベースの
  収益性分析
end note

@enduml

PlantUML version 1.2019.06(Sat May 25 02:10:25 JST 2019)
(GPL source distribution)
Java Runtime: OpenJDK Runtime Environment
JVM: OpenJDK 64-Bit Server VM
Java Version: 21.0.8+9-LTS
Operating System: Mac OS X
OS Version: 15.6.1
Default Encoding: UTF-8
Language: ja
Country: JP
--></g></svg>