<svg xmlns="http://www.w3.org/2000/svg" xmlns:xlink="http://www.w3.org/1999/xlink" contentStyleType="text/css" data-diagram-type="DESCRIPTION" height="551px" preserveAspectRatio="none" style="width:1836px;height:551px;background:#FFFFFF;" version="1.1" viewBox="0 0 1836 551" width="1836px" zoomAndPan="magnify"><title>Phase 1 &#12450;&#12540;&#12461;&#12486;&#12463;&#12481;&#12515;</title><defs/><g><g class="title" data-source-line="5"><text fill="#000000" font-family="sans-serif" font-size="14" font-weight="bold" lengthAdjust="spacing" textLength="158.5938" x="831.7494" y="23.5352">Phase 1 &#12450;&#12540;&#12461;&#12486;&#12463;&#12481;&#12515;</text></g><!--cluster Vercel--><g class="cluster" data-entity="Vercel" data-source-line="9" data-uid="ent0003" id="cluster_Vercel"><rect fill="#E5F5FF" height="247.71" rx="2.5" ry="2.5" style="stroke:#181818;stroke-width:1;" width="1286" x="7" y="144.4783"/><text fill="#000000" font-family="sans-serif" font-size="14" font-weight="bold" lengthAdjust="spacing" textLength="44.5566" x="627.7217" y="160.0134">Vercel</text></g><!--cluster API Routes--><g class="cluster" data-entity="API Routes" data-source-line="12" data-uid="ent0005" id="cluster_API Routes"><rect fill="none" height="87.49" rx="2.5" ry="2.5" style="stroke:#181818;stroke-width:1;" width="1238" x="31" y="280.6983"/><text fill="#000000" font-family="sans-serif" font-size="14" font-weight="bold" lengthAdjust="spacing" textLength="77.7383" x="611.1309" y="296.2334">API Routes</text></g><!--cluster DB--><g class="cluster" data-entity="DB" data-source-line="22" data-uid="ent0012" id="cluster_DB"><path d="M605,426.1883 C605,416.1883 676,416.1883 676,416.1883 C676,416.1883 747,416.1883 747,426.1883 L747,524.6783 C747,534.6783 676,534.6783 676,534.6783 C676,534.6783 605,534.6783 605,524.6783 L605,426.1883" fill="#E5FFE5" style="stroke:#181818;stroke-width:1;"/><path d="M605,426.1883 C605,436.1883 676,436.1883 676,436.1883 C676,436.1883 747,436.1883 747,426.1883" fill="none" style="stroke:#181818;stroke-width:1;"/><text fill="#000000" font-family="sans-serif" font-size="14" font-weight="bold" lengthAdjust="spacing" textLength="68.3252" x="641.8374" y="451.7234">Supabase</text><text fill="#000000" font-family="sans-serif" font-size="14" font-weight="bold" lengthAdjust="spacing" textLength="82.5918" x="634.7041" y="468.2117">PostgreSQL</text></g><!--cluster OpenAI--><g class="cluster" data-entity="OpenAI" data-source-line="26" data-uid="ent0014" id="cluster_OpenAI"><path d="M1467.4869,281.4257 C1473.094,274.5927 1477.8795,273.1982 1483.0928,281.8233 C1486.1508,273.8838 1492.6968,273.1513 1497.8414,279.6991 C1502.5288,270.2253 1509.1062,269.5254 1515.223,278.3406 C1519.8864,271.405 1524.7603,271.0508 1529.7495,277.9996 C1533.7962,269.8621 1541.6539,270.6202 1545.7891,277.9075 C1548.9825,271.0826 1554.2368,269.1528 1559.4072,275.9279 C1564.7357,267.9982 1571.5972,269.5077 1575.5935,277.2996 C1580.8383,268.9702 1587.4048,270.7991 1592.2584,277.7269 C1597.124,270.526 1603.2936,271.0736 1607.4139,278.4991 C1612.1491,272.7955 1618.0443,271.9336 1621.5732,279.7614 C1626.5716,272.1923 1633.1266,272.2706 1637.8603,280.0425 C1646.7957,273.1761 1656.1485,275.0864 1658,287.4583 C1659.4077,287.7379 1660.2526,288.7017 1659.1516,290.0823 C1668.8715,292.2829 1670.4425,299.3041 1663.9046,306.2763 C1673.9139,309.5318 1677.6768,315.0142 1670.9692,324.685 C1676.6555,333.2608 1676.2714,340.4483 1664.7906,343.3375 C1671.442,355.9829 1665.1104,367.1997 1651,368.4383 C1651.8641,367.5302 1653.1177,367.682 1653.5668,368.9319 C1649.6657,377.8023 1642.1704,376.7192 1637.2853,369.9568 C1633.8831,377.2495 1626.9078,378.831 1622.1513,371.3436 C1618.6908,378.3113 1611.8189,379.0391 1607.2745,372.5411 C1601.893,381.1732 1595.8258,381.7296 1590.299,372.6807 C1586.7482,380.0886 1581.2402,379.8618 1576.1503,374.3686 C1571.4264,381.3728 1565.8428,382.0589 1560.4057,375.1774 C1556.5655,382.7886 1548.6236,381.7405 1544.5455,375.4489 C1539.3309,381.6045 1534.6081,382.0217 1530.1569,374.6377 C1524.7371,382.2535 1517.6718,378.9949 1514.9988,371.8222 C1510.2221,379.6543 1502.2981,379.6708 1498.7492,370.6391 C1495.1816,377.604 1489.7102,378.5259 1484.9446,371.8515 C1472.8356,381.7019 1462.4896,374.6309 1460,361.4383 C1461.3776,360.8246 1462.1881,361.4139 1462.1246,362.8979 C1451.7186,358.9223 1451.8311,350.9285 1459.1508,344.1424 C1449.2,338.239 1447.8123,331.6103 1458.0125,324.5369 C1448.7665,319.5664 1450.9965,312.1282 1458.2238,307.3603 C1449.4981,295.8021 1452.0321,284.287 1467,280.4583 C1467.5693,280.5174 1467.7758,280.9347 1467.4869,281.4257" fill="#FFF5E5" style="stroke:#181818;stroke-width:1;"/><text fill="#000000" font-family="sans-serif" font-size="14" font-weight="bold" lengthAdjust="spacing" textLength="53.1494" x="1532.4253" y="298.9934">OpenAI</text></g><!--cluster GitHub Actions--><g class="cluster" data-entity="GitHub Actions" data-source-line="30" data-uid="ent0016" id="cluster_GitHub Actions"><rect fill="#FFE5E5" height="103.98" rx="2.5" ry="2.5" style="stroke:#181818;stroke-width:1;" width="124" x="1317" y="144.4783"/><text fill="#000000" font-family="sans-serif" font-size="14" font-weight="bold" lengthAdjust="spacing" textLength="108.7119" x="1324.644" y="160.0134">GitHub Actions</text></g><!--entity Frontend--><g class="entity" data-entity="Frontend" data-source-line="10" data-uid="ent0004" id="entity_Frontend"><rect fill="#F1F1F1" height="52.9766" rx="2.5" ry="2.5" style="stroke:#181818;stroke-width:0.5;" width="118" x="617" y="179.4783"/><text fill="#000000" font-family="sans-serif" font-size="14" lengthAdjust="spacing" textLength="47.79" x="627" y="203.0134">Next.js</text><text fill="#000000" font-family="sans-serif" font-size="14" lengthAdjust="spacing" textLength="98" x="627" y="219.5017">&#12501;&#12525;&#12531;&#12488;&#12456;&#12531;&#12489;</text></g><!--entity APIStart--><g class="entity" data-entity="APIStart" data-source-line="13" data-uid="ent0006" id="entity_APIStart"><rect fill="#F1F1F1" height="36.4883" rx="2.5" ry="2.5" style="stroke:#181818;stroke-width:0.5;" width="145.0225" x="882.49" y="315.6983"/><text fill="#000000" font-family="sans-serif" font-size="14" lengthAdjust="spacing" textLength="125.0225" x="892.49" y="339.2334">/api/analyze/start</text></g><!--entity APISchedule--><g class="entity" data-entity="APISchedule" data-source-line="14" data-uid="ent0007" id="entity_APISchedule"><rect fill="#F1F1F1" height="36.4883" rx="2.5" ry="2.5" style="stroke:#181818;stroke-width:0.5;" width="218.6182" x="46.69" y="315.6983"/><text fill="#000000" font-family="sans-serif" font-size="14" lengthAdjust="spacing" textLength="198.6182" x="56.69" y="339.2334">/api/patent-search/schedule</text></g><!--entity APICron--><g class="entity" data-entity="APICron" data-source-line="15" data-uid="ent0008" id="entity_APICron"><rect fill="#F1F1F1" height="36.4883" rx="2.5" ry="2.5" style="stroke:#181818;stroke-width:0.5;" width="190.6592" x="1062.67" y="315.6983"/><text fill="#000000" font-family="sans-serif" font-size="14" lengthAdjust="spacing" textLength="170.6592" x="1072.67" y="339.2334">/api/cron/check-and-do</text></g><!--entity APIWebhook--><g class="entity" data-entity="APIWebhook" data-source-line="16" data-uid="ent0009" id="entity_APIWebhook"><rect fill="#F1F1F1" height="36.4883" rx="2.5" ry="2.5" style="stroke:#181818;stroke-width:0.5;" width="169.7617" x="300.12" y="315.6983"/><text fill="#000000" font-family="sans-serif" font-size="14" lengthAdjust="spacing" textLength="149.7617" x="310.12" y="339.2334">/api/webhook/openai</text></g><!--entity APIStatus--><g class="entity" data-entity="APIStatus" data-source-line="17" data-uid="ent0010" id="entity_APIStatus"><rect fill="#F1F1F1" height="36.4883" rx="2.5" ry="2.5" style="stroke:#181818;stroke-width:0.5;" width="155.1191" x="504.44" y="315.6983"/><text fill="#000000" font-family="sans-serif" font-size="14" lengthAdjust="spacing" textLength="135.1191" x="514.44" y="339.2334">/api/analyze/status</text></g><!--entity APIResult--><g class="entity" data-entity="APIResult" data-source-line="18" data-uid="ent0011" id="entity_APIResult"><rect fill="#F1F1F1" height="36.4883" rx="2.5" ry="2.5" style="stroke:#181818;stroke-width:0.5;" width="152.5898" x="694.71" y="315.6983"/><text fill="#000000" font-family="sans-serif" font-size="14" lengthAdjust="spacing" textLength="132.5898" x="704.71" y="339.2334">/api/analyze/result</text></g><!--entity Jobs--><g class="entity" data-entity="Jobs" data-source-line="23" data-uid="ent0013" id="entity_Jobs"><rect fill="#F1F1F1" height="36.4883" rx="2.5" ry="2.5" style="stroke:#181818;stroke-width:0.5;" width="109.6396" x="621.18" y="482.1883"/><text fill="#000000" font-family="sans-serif" font-size="14" lengthAdjust="spacing" textLength="89.6396" x="631.18" y="505.7234">analysis_jobs</text></g><!--entity DeepResearch--><g class="entity" data-entity="DeepResearch" data-source-line="27" data-uid="ent0015" id="entity_DeepResearch"><rect fill="#F1F1F1" height="52.9766" rx="2.5" ry="2.5" style="stroke:#181818;stroke-width:0.5;" width="182.6133" x="1467.69" y="307.4583"/><text fill="#000000" font-family="sans-serif" font-size="14" lengthAdjust="spacing" textLength="126.0957" x="1477.69" y="330.9934">Deep Research API</text><text fill="#000000" font-family="sans-serif" font-size="14" lengthAdjust="spacing" textLength="162.6133" x="1477.69" y="347.4817">o4-mini-deep-research</text></g><!--entity Cron--><g class="entity" data-entity="Cron" data-source-line="31" data-uid="ent0017" id="entity_Cron"><rect fill="#F1F1F1" height="52.9766" rx="2.5" ry="2.5" style="stroke:#181818;stroke-width:0.5;" width="88.8105" x="1332.59" y="179.4783"/><text fill="#000000" font-family="sans-serif" font-size="14" lengthAdjust="spacing" textLength="32.7031" x="1342.59" y="203.0134">Cron</text><text fill="#000000" font-family="sans-serif" font-size="14" lengthAdjust="spacing" textLength="68.8105" x="1342.59" y="219.5017">(15&#20998;&#12372;&#12392;)</text></g><!--entity User--><g class="entity" data-entity="User" data-source-line="7" data-uid="ent0002" id="entity_User"><ellipse cx="676" cy="51.4883" fill="#F1F1F1" rx="8" ry="8" style="stroke:#181818;stroke-width:0.5;"/><path d="M676,59.4883 L676,86.4883 M663,67.4883 L689,67.4883 M676,86.4883 L663,101.4883 M676,86.4883 L689,101.4883" fill="none" style="stroke:#181818;stroke-width:0.5;"/><text fill="#000000" font-family="sans-serif" font-size="14" lengthAdjust="spacing" textLength="56" x="648" y="116.5234">&#12518;&#12540;&#12470;&#12540;</text></g><g class="entity" data-entity="GMN34" data-source-line="55" data-uid="ent0035" id="entity_GMN34"><path d="M1684.91,305.9783 L1684.91,329.6783 L1650.75,333.6783 L1684.91,337.6783 L1684.91,361.9099 A0,0 0 0 0 1684.91,361.9099 L1829.0926,361.9099 A0,0 0 0 0 1829.0926,361.9099 L1829.0926,315.9783 L1819.0926,305.9783 L1684.91,305.9783 A0,0 0 0 0 1684.91,305.9783" fill="#FEFFDD" style="stroke:#181818;stroke-width:0.5;"/><path d="M1819.0926,305.9783 L1819.0926,315.9783 L1829.0926,315.9783 L1819.0926,305.9783" fill="#FEFFDD" style="stroke:#181818;stroke-width:0.5;"/><text fill="#000000" font-family="sans-serif" font-size="13" lengthAdjust="spacing" textLength="65" x="1690.91" y="323.5466">&#38750;&#21516;&#26399;&#20966;&#29702;</text><text fill="#000000" font-family="sans-serif" font-size="13" lengthAdjust="spacing" textLength="109.0654" x="1690.91" y="338.8572">background: true</text><text fill="#000000" font-family="sans-serif" font-size="13" lengthAdjust="spacing" textLength="123.1826" x="1690.91" y="354.1677">Webhook&#12391;&#23436;&#20102;&#36890;&#30693;</text></g><g class="entity" data-entity="GMN37" data-source-line="61" data-uid="ent0038" id="entity_GMN37"><path d="M1309.18,298.3283 L1309.18,369.5705 A0,0 0 0 0 1309.18,369.5705 L1432.8153,369.5705 A0,0 0 0 0 1432.8153,369.5705 L1432.8153,308.3283 L1422.8153,298.3283 L1381,298.3283 L1377,232.7983 L1373,298.3283 L1309.18,298.3283 A0,0 0 0 0 1309.18,298.3283" fill="#FEFFDD" style="stroke:#181818;stroke-width:0.5;"/><path d="M1422.8153,298.3283 L1422.8153,308.3283 L1432.8153,308.3283 L1422.8153,298.3283" fill="#FEFFDD" style="stroke:#181818;stroke-width:0.5;"/><text fill="#000000" font-family="sans-serif" font-size="13" lengthAdjust="spacing" textLength="94.4404" x="1315.18" y="315.8966">15&#20998;&#12372;&#12392;&#12395;&#23455;&#34892;</text><text fill="#000000" font-family="sans-serif" font-size="13" lengthAdjust="spacing" textLength="102.6353" x="1315.18" y="331.2072">- &#12473;&#12486;&#12540;&#12479;&#12473;&#30906;&#35469;</text><text fill="#000000" font-family="sans-serif" font-size="13" lengthAdjust="spacing" textLength="102.6353" x="1315.18" y="346.5177">- &#26032;&#35215;&#12472;&#12519;&#12502;&#38283;&#22987;</text><text fill="#000000" font-family="sans-serif" font-size="13" lengthAdjust="spacing" textLength="89.6353" x="1315.18" y="361.8283">- &#12522;&#12488;&#12521;&#12452;&#20966;&#29702;</text></g><!--link User to Frontend--><g class="link" data-entity-1="User" data-entity-2="Frontend" data-source-line="34" data-uid="lnk18" id="link_User_Frontend"><path d="M676,119.6783 C676,139.0083 676,155.9483 676,173.3083" fill="none" id="User-to-Frontend" style="stroke:#181818;stroke-width:1;"/><polygon fill="#181818" points="676,179.3083,680,170.3083,676,174.3083,672,170.3083,676,179.3083" style="stroke:#181818;stroke-width:1;"/><text fill="#000000" font-family="sans-serif" font-size="13" lengthAdjust="spacing" textLength="107.4468" x="677" y="146.0666">1. &#20998;&#26512;&#12522;&#12463;&#12456;&#12473;&#12488;</text></g><!--link Frontend to APIStart--><g class="link" data-entity-1="Frontend" data-entity-2="APIStart" data-source-line="35" data-uid="lnk19" id="link_Frontend_APIStart"><path d="M735.42,196.6783 C810.72,196.6783 930.83,196.6783 930.83,196.6783 C930.83,196.6783 930.83,271.9683 930.83,309.4383" fill="none" id="Frontend-to-APIStart" style="stroke:#181818;stroke-width:1;"/><polygon fill="#181818" points="930.83,315.4383,934.83,306.4383,930.83,310.4383,926.83,306.4383,930.83,315.4383" style="stroke:#181818;stroke-width:1;"/><text fill="#000000" font-family="sans-serif" font-size="13" lengthAdjust="spacing" textLength="48.9531" x="843.5" y="193.2466">2. POST</text></g><!--link Frontend to APISchedule--><g class="link" data-entity-1="Frontend" data-entity-2="APISchedule" data-source-line="36" data-uid="lnk20" id="link_Frontend_APISchedule"><path d="M616.6,205.6783 C480.16,205.6783 156,205.6783 156,205.6783 C156,205.6783 156,273.7183 156,309.2983" fill="none" id="Frontend-to-APISchedule" style="stroke:#181818;stroke-width:1;"/><polygon fill="#181818" points="156,315.2983,160,306.2983,156,310.2983,152,306.2983,156,315.2983" style="stroke:#181818;stroke-width:1;"/><text fill="#000000" font-family="sans-serif" font-size="13" lengthAdjust="spacing" textLength="39" x="271.99" y="187.2466">&#12414;&#12383;&#12399;</text><text fill="#000000" font-family="sans-serif" font-size="13" lengthAdjust="spacing" textLength="78" x="252.49" y="202.5572">&#12473;&#12465;&#12472;&#12517;&#12540;&#12523;</text></g><!--link APIStart to Jobs--><g class="link" data-entity-1="APIStart" data-entity-2="Jobs" data-source-line="38" data-uid="lnk21" id="link_APIStart_Jobs"><path d="M955,352.3883 C955,394.5983 955,494.6783 955,494.6783 C955,494.6783 818.43,494.6783 737.12,494.6783" fill="none" id="APIStart-to-Jobs" style="stroke:#181818;stroke-width:1;"/><polygon fill="#181818" points="731.12,494.6783,740.12,498.6783,736.12,494.6783,740.12,490.6783,731.12,494.6783" style="stroke:#181818;stroke-width:1;"/><text fill="#000000" font-family="sans-serif" font-size="13" lengthAdjust="spacing" textLength="81.4468" x="832.21" y="491.2466">3. &#12472;&#12519;&#12502;&#20316;&#25104;</text></g><!--link APISchedule to Jobs--><g class="link" data-entity-1="APISchedule" data-entity-2="Jobs" data-source-line="39" data-uid="lnk22" id="link_APISchedule_Jobs"><path d="M156,352.4283 C156,396.9883 156,506.6783 156,506.6783 C156,506.6783 481.01,506.6783 614.84,506.6783" fill="none" id="APISchedule-to-Jobs" style="stroke:#181818;stroke-width:1;"/><polygon fill="#181818" points="620.84,506.6783,611.84,502.6783,615.84,506.6783,611.84,510.6783,620.84,506.6783" style="stroke:#181818;stroke-width:1;"/><text fill="#000000" font-family="sans-serif" font-size="13" lengthAdjust="spacing" textLength="65" x="245.3" y="503.2466">&#12472;&#12519;&#12502;&#20316;&#25104;</text></g><!--link APIStart to DeepResearch--><g class="link" data-entity-1="APIStart" data-entity-2="DeepResearch" data-source-line="41" data-uid="lnk23" id="link_APIStart_DeepResearch"><path d="M979.17,315.2883 C979.17,295.0783 979.17,265.6783 979.17,265.6783 C979.17,265.6783 1559,265.6783 1559,265.6783 C1559,265.6783 1559,281.8783 1559,300.9683" fill="none" id="APIStart-to-DeepResearch" style="stroke:#181818;stroke-width:1;"/><polygon fill="#181818" points="1559,306.9683,1563,297.9683,1559,301.9683,1555,297.9683,1559,306.9683" style="stroke:#181818;stroke-width:1;"/><text fill="#000000" font-family="sans-serif" font-size="13" lengthAdjust="spacing" textLength="109.5225" x="1150.919" y="247.2466">4. Deep Research</text><text fill="#000000" font-family="sans-serif" font-size="13" lengthAdjust="spacing" textLength="117.5205" x="1146.92" y="262.5572">(background: true)</text></g><!--reverse link APIWebhook to DeepResearch--><g class="link" data-entity-1="APIWebhook" data-entity-2="DeepResearch" data-source-line="42" data-uid="lnk25" id="link_APIWebhook_DeepResearch"><path d="M385,309.4483 C385,284.3683 385,248.6783 385,248.6783 C385,248.6783 1604.65,248.6783 1604.65,248.6783 C1604.65,248.6783 1604.65,281.9883 1604.65,306.9683" fill="none" id="APIWebhook-backto-DeepResearch" style="stroke:#181818;stroke-width:1;"/><polygon fill="#181818" points="385,315.4483,389,306.4483,385,310.4483,381,306.4483,385,315.4483" style="stroke:#181818;stroke-width:1;"/><text fill="#000000" font-family="sans-serif" font-size="13" lengthAdjust="spacing" textLength="74.6294" x="884.3317" y="230.2466">5. Webhook</text><text fill="#000000" font-family="sans-serif" font-size="13" lengthAdjust="spacing" textLength="136.1128" x="853.59" y="245.5572">(response.completed)</text></g><!--link APIWebhook to Jobs--><g class="link" data-entity-1="APIWebhook" data-entity-2="Jobs" data-source-line="43" data-uid="lnk26" id="link_APIWebhook_Jobs"><path d="M385,352.3883 C385,394.5983 385,494.6783 385,494.6783 C385,494.6783 530.56,494.6783 614.92,494.6783" fill="none" id="APIWebhook-to-Jobs" style="stroke:#181818;stroke-width:1;"/><polygon fill="#181818" points="620.92,494.6783,611.92,490.6783,615.92,494.6783,611.92,498.6783,620.92,494.6783" style="stroke:#181818;stroke-width:1;"/><text fill="#000000" font-family="sans-serif" font-size="13" lengthAdjust="spacing" textLength="68.4468" x="362.81" y="491.2466">6. &#32080;&#26524;&#20445;&#23384;</text></g><!--link Cron to APICron--><g class="link" data-entity-1="Cron" data-entity-2="APICron" data-source-line="45" data-uid="lnk27" id="link_Cron_APICron"><path d="M1332.17,214.6783 C1260.03,214.6783 1126.22,214.6783 1126.22,214.6783 C1126.22,214.6783 1126.22,275.7683 1126.22,309.3083" fill="none" id="Cron-to-APICron" style="stroke:#181818;stroke-width:1;"/><polygon fill="#181818" points="1126.22,315.3083,1130.22,306.3083,1126.22,310.3083,1122.22,306.3083,1126.22,315.3083" style="stroke:#181818;stroke-width:1;"/><text fill="#000000" font-family="sans-serif" font-size="13" lengthAdjust="spacing" textLength="68.4468" x="1109.88" y="211.2466">7. &#23450;&#26399;&#23455;&#34892;</text></g><!--link APICron to Jobs--><g class="link" data-entity-1="APICron" data-entity-2="Jobs" data-source-line="46" data-uid="lnk28" id="link_APICron_Jobs"><path d="M1158,352.4283 C1158,396.9883 1158,506.6783 1158,506.6783 C1158,506.6783 863.9,506.6783 737.29,506.6783" fill="none" id="APICron-to-Jobs" style="stroke:#181818;stroke-width:1;"/><polygon fill="#181818" points="731.29,506.6783,740.29,510.6783,736.29,506.6783,740.29,502.6783,731.29,506.6783" style="stroke:#181818;stroke-width:1;"/><text fill="#000000" font-family="sans-serif" font-size="13" lengthAdjust="spacing" textLength="91" x="929.77" y="503.2466">&#12473;&#12486;&#12540;&#12479;&#12473;&#30906;&#35469;</text></g><!--link APICron to DeepResearch--><g class="link" data-entity-1="APICron" data-entity-2="DeepResearch" data-source-line="47" data-uid="lnk29" id="link_APICron_DeepResearch"><path d="M1189.78,315.3683 C1189.78,300.3483 1189.78,281.6783 1189.78,281.6783 C1189.78,281.6783 1513.35,281.6783 1513.35,281.6783 C1513.35,281.6783 1513.35,288.3383 1513.35,301.1983" fill="none" id="APICron-to-DeepResearch" style="stroke:#181818;stroke-width:1;"/><polygon fill="#181818" points="1513.35,307.1983,1517.35,298.1983,1513.35,302.1983,1509.35,298.1983,1513.35,307.1983" style="stroke:#181818;stroke-width:1;"/><text fill="#000000" font-family="sans-serif" font-size="13" lengthAdjust="spacing" textLength="91" x="1367.98" y="263.2466">&#26032;&#35215;&#12472;&#12519;&#12502;&#38283;&#22987;</text><text fill="#000000" font-family="sans-serif" font-size="13" lengthAdjust="spacing" textLength="130" x="1348.48" y="278.5572">&#12414;&#12383;&#12399;&#12473;&#12486;&#12540;&#12479;&#12473;&#21462;&#24471;</text></g><!--link Frontend to APIStatus--><g class="link" data-entity-1="Frontend" data-entity-2="APIStatus" data-source-line="49" data-uid="lnk30" id="link_Frontend_APIStatus"><path d="M638.28,232.7983 C638.28,257.5683 638.28,287.7183 638.28,309.4283" fill="none" id="Frontend-to-APIStatus" style="stroke:#181818;stroke-width:1;"/><polygon fill="#181818" points="638.28,315.4283,642.28,306.4283,638.28,310.4283,634.28,306.4283,638.28,315.4283" style="stroke:#181818;stroke-width:1;"/><text fill="#000000" font-family="sans-serif" font-size="13" lengthAdjust="spacing" textLength="107.4468" x="530.28" y="270.6766">8. &#12473;&#12486;&#12540;&#12479;&#12473;&#30906;&#35469;</text></g><!--link APIStatus to Jobs--><g class="link" data-entity-1="APIStatus" data-entity-2="Jobs" data-source-line="50" data-uid="lnk31" id="link_APIStatus_Jobs"><path d="M640.37,352.3983 C640.37,384.3983 640.37,443.8383 640.37,475.8983" fill="none" id="APIStatus-to-Jobs" style="stroke:#181818;stroke-width:1;"/><polygon fill="#181818" points="640.37,481.8983,644.37,472.8983,640.37,476.8983,636.37,472.8983,640.37,481.8983" style="stroke:#181818;stroke-width:1;"/></g><!--link Frontend to APIResult--><g class="link" data-entity-1="Frontend" data-entity-2="APIResult" data-source-line="51" data-uid="lnk32" id="link_Frontend_APIResult"><path d="M714.85,232.7983 C714.85,257.5683 714.85,287.7183 714.85,309.4283" fill="none" id="Frontend-to-APIResult" style="stroke:#181818;stroke-width:1;"/><polygon fill="#181818" points="714.85,315.4283,718.85,306.4283,714.85,310.4283,710.85,306.4283,714.85,315.4283" style="stroke:#181818;stroke-width:1;"/><text fill="#000000" font-family="sans-serif" font-size="13" lengthAdjust="spacing" textLength="68.4468" x="645.85" y="270.6766">9. &#32080;&#26524;&#21462;&#24471;</text></g><!--link APIResult to Jobs--><g class="link" data-entity-1="APIResult" data-entity-2="Jobs" data-source-line="52" data-uid="lnk33" id="link_APIResult_Jobs"><path d="M712.76,352.3983 C712.76,384.3983 712.76,443.8383 712.76,475.8983" fill="none" id="APIResult-to-Jobs" style="stroke:#181818;stroke-width:1;"/><polygon fill="#181818" points="712.76,481.8983,716.76,472.8983,712.76,476.8983,708.76,472.8983,712.76,481.8983" style="stroke:#181818;stroke-width:1;"/></g><!--SRC=[XLLRRnD757wVNt6ql3GFkrPQt4iUAgKGSr5L0kxb9L8rtXtY9PiPQsTMQOgGi5TAKv4AFxHfXKAYqf9G4A48WG1n-J4JEyc_w9dnxcPjd9A7Q6Vc-xvpvdpdZEL2o5iqfelGeFx2V2mI7fmIaOZXHCt-4LaWVB7O4fnnLLVB4OEO-Oho-OYL8578cLfkCH2nQWf2LAWGETkaai4awCuTdRxIdOSwNT6THpfjw_GlGgYlC9wZqsrx-Wp_Eq0bV2DPJ4WH1fnlMUopo84JCzLQjLQ3gmIEaWBdA_Q3ygx8EQxJttIAGPxeT5LtxjcFdwraBHPSCHuGP9Q4fsVFmIMHA2OTApeaMw6ji48vZPP_P1MfQAoi57BgPZ4Mtg8OHRcIqTXlLgJVP44IiOANhSTIVKonWW1_mQKyS0EHiqxXmLZ64ciqXLYeY1RZDCpXtmrsttSRbSZITN3rluIOoIGgxd_9hf1mZLmZ9A2ADepHJZrfsQyvFYkacezP_UANbdFw2-jTRQOwwfqD84Fv_HNH62Hq7Z-Ch1-9903d0bvk-fnZsxBwBlyqOot0V6p1JMvpN9nq5qCUkW4UkN5sD4W3TtAi2L7gX3EXEfiqODfNeU3IXfiP4yvuCSS_cApsLbTq-rVTlZTXbQr7g6XQ5z2x9Uv-NZGTJC6a1yZeRtPrUjzC03PdvmLsAIamEIblBoHzwC7iXVhNup5PAo5Cjz_ezfPkFy81GD7EOzrvhjExPgRI1uGKWZdR51Xf7tbWWJiwNTzxlT5VxPAoxWXw55gIZSFvfa9akRh8EEd1a3bOjgEdPWfKdB09CiHn8tPP3QwNDJ7AL3t85YY0Rg8Jadd6aeWf5aoG4deavuyzs7_QxMzkxBsztNlu1o76fN8HxNeAFa5pTc_rDxPwkri7VwwH_EIT4hmmxvTvgjxYz_wTbmVtVpa27rE6_lg_1zitY_8Thj_exTn0ftBJHbHxDzTxRtudn_K5pYbgVkeTdqm6AkS-LcmmmoZsMLwbBFJHsP06uKBXssyk2UBoy2W17DxUx7NNJ0b_sjxlhk3EgDUubTcaspkztRMzbok7rs_jRzqb9Z4ZdeLe2AN4eecHFNobOTFj1vb70EunDJ0dOui-uE3yuOz3-e_k_9tbMiJ_3m00]--></g></svg>